<?xml version="1.0" standalone="no"?>
<!DOCTYPE svg PUBLIC "-//W3C//DTD SVG 1.1//EN" "http://www.w3.org/Graphics/SVG/1.1/DTD/svg11.dtd" >
<svg xmlns="http://www.w3.org/2000/svg">
<metadata></metadata>
<defs>
<font id="winnie_the_hooproman" horiz-adv-x="1353" >
<font-face units-per-em="2048" ascent="1567" descent="-481" />
<missing-glyph horiz-adv-x="655" />
<glyph unicode="&#xfb01;" horiz-adv-x="1472" d="M20 895q0 129 97 129h84q-15 112 -15 143q0 76 18 138t47 103.5t72.5 72.5t85.5 47.5t95 26.5t94 13t88 3q68 0 145.5 -7.5t162.5 -25t140.5 -53t55.5 -84.5q0 -88 -51.5 -151.5t-151.5 -63.5q-38 0 -74.5 12t-70.5 35t-58.5 44t-56.5 52q-81 0 -114 -50t-33 -196v-57 q191 57 434 57q142 0 212 -60.5t79 -203.5q8 -107 8 -252q0 -109 -17 -262q6 2 21 2q59 0 87 -30.5t28 -112.5q0 -54 -24.5 -89t-70 -50.5t-86.5 -20t-98 -4.5q-72 0 -122.5 15.5t-78.5 38.5t-43.5 62.5t-19.5 75.5t-4 89l20 507l-325 -22v-610q0 -87 -52.5 -123.5 t-162.5 -36.5q-111 0 -155 41t-44 133q0 8 14 596h-63q-97 0 -97 129z" />
<glyph unicode="&#xfb02;" horiz-adv-x="1540" d="M20 895q0 129 97 129h84q-15 112 -15 143q0 105 33 184t92 125t134 68.5t165 22.5q124 0 214 -19.5t190 -56.5q67 76 196 76q37 0 71.5 -8.5t67 -27t52.5 -53t20 -81.5q0 -64 -25.5 -128t-66.5 -110v-739q0 -74 15 -99.5t45 -25.5q12 0 34.5 3t32.5 3q35 0 57.5 -23.5 t29.5 -51.5t7 -60q0 -96 -64.5 -137t-211.5 -41q-291 0 -334 250q-29 184 -29 417q0 258 23 541q-148 113 -229 113q-44 0 -69.5 -18t-40.5 -68.5t-15 -139.5v-59h92q60 0 88 -28.5t28 -92.5q0 -65 -23 -99t-87 -34h-98v-614q0 -86 -52.5 -121t-162.5 -35 q-112 0 -155.5 39.5t-43.5 130.5q0 8 14 596h-63q-97 0 -97 129z" />
<glyph unicode="&#xfb03;" horiz-adv-x="2215" d="M37 895q0 129 96 129h68q-15 112 -15 143q0 105 32.5 184t90 125t128 68.5t153.5 22.5q133 0 246 -45q49 -19 71.5 -43t22.5 -60q0 -74 -39.5 -135t-104.5 -61q-34 0 -67 28.5t-55 77.5q-34 0 -50 -13.5t-25 -62.5t-9 -149v-80h364q-14 105 -14 143q0 76 18 138t47 103.5 t71.5 72.5t84.5 47.5t94.5 26.5t93.5 13t88 3q68 0 145.5 -7.5t162.5 -25t140.5 -53t55.5 -84.5q0 -88 -51 -151.5t-151 -63.5q-71 0 -132 38.5t-129 104.5q-54 0 -83.5 -19t-45.5 -73t-16 -154v-57q191 57 434 57q142 0 212 -60.5t79 -203.5q8 -107 8 -252q0 -118 -16 -262 q6 2 20 2q59 0 87 -30.5t28 -112.5q0 -54 -24.5 -89t-70 -50.5t-86.5 -20t-98 -4.5q-80 0 -135.5 18.5t-84 53t-39.5 74.5t-9 90l23 552l-328 -22v-610q0 -87 -52.5 -123.5t-162.5 -36.5q-111 0 -155 41t-44 133v3q3 83 15 593h-344v-610q0 -86 -52.5 -121t-162.5 -35 q-112 0 -155.5 39.5t-43.5 130.5q0 8 14 596h-47q-96 0 -96 129z" />
<glyph unicode="&#xfb04;" horiz-adv-x="2299" d="M39 895q0 129 96 129h66q-15 112 -15 143q0 105 32.5 184t90 125t128 68.5t153.5 22.5q133 0 246 -45q49 -19 71.5 -43t22.5 -60q0 -74 -39.5 -135t-104.5 -61q-34 0 -67 28.5t-55 77.5q-34 0 -50 -13.5t-25 -62.5t-9 -149v-80h381q-15 112 -15 143q0 105 33 184t92 125 t134 68.5t165 22.5q124 0 214 -19.5t190 -56.5q67 76 196 76q37 0 71.5 -8.5t67 -27t52.5 -53t20 -81.5q0 -64 -25.5 -128t-66.5 -110v-739q0 -74 14.5 -99.5t44.5 -25.5q12 0 35 3t33 3q35 0 57.5 -23.5t29.5 -51.5t7 -60q0 -96 -64.5 -137t-211.5 -41q-291 0 -334 250 q-29 184 -29 417q0 258 23 541q-148 113 -230 113q-44 0 -69.5 -18t-40.5 -68.5t-15 -139.5v-59h93q60 0 88 -28.5t28 -92.5q0 -65 -23 -99t-87 -34h-99v-614q0 -86 -52.5 -121t-162.5 -35q-111 0 -154.5 39t-43.5 131q0 8 14 598h-360v-612q0 -86 -52.5 -121t-162.5 -35 q-112 0 -155.5 39.5t-43.5 130.5q0 8 14 596h-45q-96 0 -96 129z" />
<glyph horiz-adv-x="2048" />
<glyph horiz-adv-x="2048" />
<glyph unicode="&#xd;" horiz-adv-x="2048" />
<glyph unicode=" "  horiz-adv-x="655" />
<glyph unicode="&#x09;" horiz-adv-x="655" />
<glyph unicode="&#xa0;" horiz-adv-x="655" />
<glyph unicode="!" horiz-adv-x="847" d="M184 1167q0 109 60 168.5t178 59.5q121 0 181.5 -59.5t60.5 -168.5q0 -330 -54 -522q-23 -85 -70.5 -117t-117.5 -32q-67 0 -114 32t-70 117q-54 192 -54 522zM223 176q0 86 59 142.5t142 56.5q86 0 143.5 -52.5t57.5 -146.5q0 -87 -58.5 -143t-142.5 -56 q-86 0 -143.5 52.5t-57.5 146.5z" />
<glyph unicode="&#x22;" horiz-adv-x="1103" d="M102 1239q0 140 40 196t153 56t152.5 -56t39.5 -196q0 -222 -42 -323t-150 -101q-109 0 -151 101t-42 323zM616 1239q0 140 40 196t153 56t152.5 -56t39.5 -196q0 -222 -42 -323t-150 -101q-109 0 -151 101t-42 323z" />
<glyph unicode="#" horiz-adv-x="1540" d="M106 279q0 138 150 147q18 2 55 2q19 91 49 195q-10 0 -22 1t-14 1q-63 5 -95 22.5t-32 61.5q0 138 149 147q58 4 82 4q8 23 21 62q33 97 70 129t120 32q63 0 86 -27t23 -81q0 -17 -15 -105h68q102 0 153 -2q2 9 5 20.5t4 14.5q15 57 24 83.5t26.5 52.5t43.5 35t67 9 q76 0 104.5 -25.5t28.5 -82.5q0 -43 -12 -117q11 -1 34.5 -2t35.5 -2q119 -6 119 -92q0 -63 -32.5 -99t-127.5 -36h-72q-8 -37 -26 -112.5t-21 -86.5q12 -1 35 -2t35 -2q118 -6 118 -92q0 -63 -32 -99t-127 -36h-92q-3 -10 -19 -58q-31 -96 -71 -129t-125 -33q-59 0 -88 25 t-29 80q0 18 20 113q-70 -2 -207 -2q-1 -5 -3.5 -13t-4 -13t-2.5 -9q-15 -53 -26.5 -82.5t-30.5 -54.5t-46.5 -34.5t-68.5 -9.5q-74 0 -102.5 33t-28.5 105q0 35 6 78q-16 2 -33 2q-63 5 -95 22.5t-32 61.5zM635 440h76q88 0 131 -2q40 157 47 187q-70 -2 -209 -2 q-8 -33 -23.5 -95.5t-21.5 -87.5z" />
<glyph unicode="$" horiz-adv-x="1335" d="M164 233q0 57 43.5 118t99.5 61q34 0 76 -22t77.5 -48t96.5 -48t129 -22q137 0 137 66q0 45 -50.5 81t-209.5 103q-64 27 -121.5 67t-108 94.5t-80.5 127t-30 152.5q0 138 99 238.5t264 137.5q-23 79 -23 129q0 42 13 70.5t36.5 42.5t48.5 19.5t58 5.5q66 0 110.5 -33.5 t44.5 -104.5q0 -47 -18 -114q150 -13 285 -82q53 -26 73.5 -56.5t20.5 -82.5q0 -56 -43.5 -115.5t-99.5 -59.5q-31 0 -71 18t-74 39.5t-81.5 39.5t-91.5 18q-66 0 -95.5 -16t-29.5 -53q0 -34 49 -69t154 -79q75 -31 131 -61t109.5 -71.5t87 -88t53.5 -110t20 -138.5 q0 -86 -30.5 -154t-86 -113.5t-124.5 -73.5t-154 -42q16 -66 16 -100q0 -42 -12.5 -70.5t-36 -42t-48.5 -19t-58 -5.5q-66 0 -111 33t-45 104q0 36 15 90q-200 16 -322 88q-51 29 -71.5 63.5t-20.5 87.5z" />
<glyph unicode="%" horiz-adv-x="1953" d="M61 1137q0 88 35 156.5t93.5 108t126.5 59.5t141 20q72 0 140 -20t126 -59.5t93.5 -108t35.5 -156.5q0 -85 -34 -152.5t-91 -108.5t-126 -62t-144 -21q-76 0 -145.5 21t-126 62t-90.5 108.5t-34 152.5zM305 111q0 46 25 94q106 187 392 553.5t495 603.5q90 100 178 100 q67 0 128.5 -50.5t61.5 -117.5q0 -46 -24 -92q-67 -128 -387.5 -548t-466.5 -584q-60 -68 -108.5 -99.5t-100.5 -31.5q-71 0 -132 51.5t-61 120.5zM387 1137q0 -125 70 -125q69 0 69 125q0 52 -16 90.5t-53 38.5q-70 0 -70 -129zM1102 328q0 88 35 156.5t93 108t126 59.5 t141 20q72 0 140 -20t126 -59.5t93.5 -108t35.5 -156.5q0 -85 -34 -152.5t-91 -108.5t-126 -62t-144 -21q-76 0 -145 21t-126 62t-90.5 108.5t-33.5 152.5zM1427 328q0 -125 70 -125t70 125q0 52 -16.5 90.5t-53.5 38.5q-70 0 -70 -129z" />
<glyph unicode="&#x26;" horiz-adv-x="1486" d="M102 350q0 103 60.5 195.5t167.5 154.5q-125 161 -125 363q0 58 17 110t54.5 98.5t93.5 80.5t140 53.5t188 19.5q105 0 191 -21.5t133 -47.5q32 -18 46.5 -40.5t14.5 -60.5q0 -67 -42 -129.5t-89 -62.5q-34 0 -115 46t-122 46q-46 0 -79.5 -29t-33.5 -84 q0 -65 112 -195.5t281 -271.5q-2 19 -14 93.5t-12 107.5q0 52 38.5 78.5t100.5 26.5t105 -19t63.5 -54t28.5 -72t8 -85q0 -162 -47 -289q9 -7 116 -79q54 -37 69 -62.5t15 -79.5q0 -82 -41.5 -131t-113.5 -49q-71 0 -267 123q-162 -107 -411 -107q-160 0 -277.5 40 t-185.5 125t-68 208zM473 399q0 -60 57 -100.5t166 -40.5q40 0 86 6q-167 130 -278 244q-31 -50 -31 -109z" />
<glyph unicode="'" horiz-adv-x="487" d="M33 1239q0 73 6 116t25.5 76.5t55 46.5t93.5 13t93.5 -13t55 -46.5t25.5 -76.5t6 -116q0 -227 -36.5 -325.5t-143.5 -98.5t-143.5 98.5t-36.5 325.5z" />
<glyph unicode="(" horiz-adv-x="792" d="M55 508q0 142 33 289t85 263t112.5 209t119 144t101.5 51q107 0 166 -50.5t59 -110.5q0 -37 -22 -70q-34 -50 -67 -112t-73 -157.5t-65 -215t-25 -240.5q0 -97 18.5 -193.5t41 -163t60.5 -140.5t58 -105.5t52 -79.5q22 -33 22 -70q0 -60 -60 -111t-165 -51 q-43 0 -101.5 48.5t-119 138t-112.5 200.5t-85 251.5t-33 275.5z" />
<glyph unicode=")" horiz-adv-x="792" d="M55 -244q0 36 23 70q32 47 52 79.5t57.5 106t60 140t41 163t18.5 193.5q0 121 -24.5 240.5t-65 215t-73 157.5t-66.5 112q-23 35 -23 70q0 60 59.5 110.5t166.5 50.5q43 0 101.5 -51t119 -144t112 -209t84.5 -263t33 -289q0 -135 -33 -275.5t-84.5 -251.5t-112 -200.5 t-119 -138t-101.5 -48.5q-105 0 -165.5 51t-60.5 111z" />
<glyph unicode="*" horiz-adv-x="964" d="M96 1194q0 74 33 120t84 46q71 0 134 -58.5t63 -111.5q0 -36 -62.5 -73.5t-126.5 -37.5q-59 0 -92 32.5t-33 82.5zM178 920q0 67 69.5 116t137.5 49q26 0 37 -8q19 -12 31 -49t12 -80q0 -74 -37 -121t-86 -47q-54 0 -109 46.5t-55 93.5zM344 1425q0 125 141 125 q140 0 140 -125q0 -63 -51 -125.5t-91 -62.5q-42 0 -90.5 61.5t-48.5 126.5zM500 942q0 43 12 80t31 49q11 8 37 8q68 0 137 -49.5t69 -116.5q0 -47 -54.5 -93t-108.5 -46q-49 0 -86 47t-37 121zM553 1188q0 53 63 111.5t134 58.5q51 0 83.5 -45.5t32.5 -120.5 q0 -50 -33 -82.5t-92 -32.5q-63 0 -125.5 37.5t-62.5 73.5z" />
<glyph unicode="+" horiz-adv-x="1425" d="M184 657q0 96 43 138.5t150 42.5q39 0 170 -29q-21 116 -21 186q0 105 45.5 149t141.5 44q97 0 143.5 -44t46.5 -149q0 -50 -20 -186q123 25 166 25q107 0 149.5 -40.5t42.5 -134.5q0 -96 -43 -139t-149 -43q-37 0 -168 29q18 -110 18 -174q0 -106 -44.5 -149.5 t-139.5 -43.5q-98 0 -145.5 44t-47.5 149q0 64 21 174q-123 -25 -166 -25q-107 0 -150 41t-43 135z" />
<glyph unicode="," horiz-adv-x="679" d="M51 -276q0 47 25 73t65 33q92 15 153 52t83 108q-19 -13 -68 -13q-71 0 -121.5 55t-50.5 156q0 94 59 152.5t148 58.5q113 0 193.5 -88.5t80.5 -259.5q0 -105 -35.5 -201t-93.5 -163t-133 -106.5t-153 -39.5q-77 0 -114.5 56.5t-37.5 126.5z" />
<glyph unicode="-" horiz-adv-x="1073" d="M92 662q0 168 144 182q88 8 290 8q206 0 310 -8q143 -11 143 -182q0 -172 -143 -183q-104 -8 -310 -8q-202 0 -290 8q-144 14 -144 183z" />
<glyph unicode="." horiz-adv-x="552" d="M61 199q0 92 63 152.5t152 60.5q93 0 154.5 -56t61.5 -157q0 -93 -63 -153t-153 -60q-92 0 -153.5 56t-61.5 157z" />
<glyph unicode="/" horiz-adv-x="1120" d="M68 -10q0 20 6 41q25 94 209.5 554t328.5 793q45 107 94 168.5t113 61.5q111 0 172.5 -51.5t61.5 -122.5q0 -13 -4 -33q-31 -135 -198.5 -574.5t-330.5 -771.5q-4 -9 -20.5 -42.5t-21.5 -43.5t-20 -37t-23.5 -36.5t-24.5 -27t-30 -24t-33 -12.5t-40 -6 q-110 0 -174.5 46.5t-64.5 117.5z" />
<glyph unicode="0" horiz-adv-x="1368" d="M82 698q0 131 22.5 241.5t70 201.5t118 154t170.5 97.5t223 34.5t222 -34.5t169 -97.5t117.5 -154t69.5 -201.5t22 -241.5q0 -118 -18 -220.5t-62 -196.5t-111 -160.5t-171.5 -106t-237.5 -39.5q-134 0 -239 39.5t-172.5 106t-111.5 160.5t-62.5 196.5t-18.5 220.5z M551 698q0 -227 29.5 -329.5t105.5 -102.5q74 0 101.5 101.5t27.5 330.5q0 231 -28 340t-101 109q-74 0 -104.5 -110.5t-30.5 -338.5z" />
<glyph unicode="1" horiz-adv-x="911" d="M20 1202q0 84 119 137q194 88 353 88q95 0 165.5 -37.5t81.5 -119.5q14 -97 24.5 -309.5t10.5 -385.5q0 -261 -16 -411q-9 -89 -57 -126.5t-160 -37.5q-120 0 -177 43.5t-51 140.5v840q-62 -49 -120 -49q-69 0 -121 69.5t-52 157.5z" />
<glyph unicode="2" horiz-adv-x="1234" d="M61 1206q0 99 86 137q185 84 433 84q84 0 158.5 -13.5t145.5 -46.5t121.5 -83.5t81.5 -131t31 -183.5q0 -104 -45.5 -207.5t-120 -187.5t-164.5 -150.5t-186 -110.5q23 -2 64 -2q90 0 217 29t174 29q36 0 62.5 -21.5t39.5 -58.5t19 -77.5t6 -86.5q0 -101 -127 -121 q-108 -18 -436 -18q-309 0 -418 20q-38 7 -65 28.5t-40.5 51.5t-19.5 59.5t-6 61.5q0 59 27.5 101.5t84.5 84.5q54 40 107 83.5t119 106.5t115 121.5t82.5 125t33.5 120.5q0 79 -44.5 124.5t-119.5 45.5q-35 0 -79.5 -28t-92.5 -56t-90 -28q-65 0 -109.5 67t-44.5 131z" />
<glyph unicode="3" horiz-adv-x="1206" d="M72 176q0 77 39 135t108 58q31 0 66 -16t62 -34.5t64.5 -34.5t71.5 -16q181 0 181 168q0 92 -66.5 130t-216.5 38q-109 0 -109 148q0 122 107 122q129 0 186.5 36.5t57.5 109.5q0 62 -43.5 87.5t-102.5 25.5q-52 0 -135.5 -29t-122.5 -29q-33 0 -58 16.5t-38 42t-19 51 t-6 50.5q0 93 97 131q88 33 169 47t191 14q239 0 383.5 -82.5t144.5 -236.5q0 -65 -16 -116t-49.5 -92t-70.5 -70t-93 -64v-18q121 -41 195.5 -128t74.5 -212q0 -210 -166.5 -320.5t-453.5 -110.5q-61 0 -152.5 17.5t-156.5 46.5q-63 28 -93 55.5t-30 79.5z" />
<glyph unicode="4" horiz-adv-x="1300" d="M41 489q0 15 3 29.5t6.5 25t10 23.5t10.5 19.5t11.5 18t9.5 13.5q106 167 202 347t150.5 294t65.5 130q37 53 102 53q140 0 217.5 -43.5t77.5 -110.5q0 -117 -125 -334t-280 -395q-2 -2 -2 -8q0 -8 6 -8h156v35q0 103 38.5 143.5t149.5 40.5q100 0 152 -42.5t61 -139.5 q1 -6 2 -18.5t2 -18.5h90q123 0 123 -156q0 -174 -137 -174h-64q0 -41 -4 -127q-9 -123 -219 -123q-197 0 -197 123v127h-415q-59 0 -101.5 27.5t-63 72t-29.5 88t-9 88.5z" />
<glyph unicode="5" horiz-adv-x="1228" d="M57 162q0 28 5 56.5t18.5 65.5t45 60t77.5 23q50 0 147 -52.5t148 -52.5q84 0 137 40t53 128q0 83 -44.5 131.5t-137.5 48.5q-33 0 -91 -16t-91 -16q-76 0 -130.5 36t-64.5 111q-16 131 -16 274q0 217 43 302t172 108q111 18 311 18q242 0 313 -12q37 -6 57.5 -29.5 t25.5 -50t5 -65.5q0 -87 -45.5 -147t-124.5 -60q-57 0 -368 24v-202q79 20 160 20q93 0 179 -30.5t154.5 -87t110 -146t41.5 -197.5q0 -93 -33.5 -170t-93 -131.5t-141.5 -92t-177.5 -55.5t-203.5 -18q-119 0 -209 17.5t-137 42.5q-51 26 -73 55.5t-22 69.5z" />
<glyph unicode="6" horiz-adv-x="1300" d="M82 649q0 225 93.5 403.5t255.5 276.5t362 98q149 0 264 -32q123 -33 123 -133q0 -79 -38 -143t-106 -64q-56 0 -133 41t-133 41q-96 0 -144 -75t-63 -212q106 61 232 61q192 0 318 -115t126 -315q0 -233 -144.5 -368.5t-398.5 -135.5q-298 0 -456 171t-158 501zM555 621 q0 -71 2 -118t9 -97t20 -78.5t36.5 -47t57.5 -18.5q66 0 101.5 59t35.5 162q0 81 -30.5 126.5t-112.5 45.5q-64 0 -119 -34z" />
<glyph unicode="7" horiz-adv-x="1144" d="M61 1294q0 53 27 78.5t74 36.5q35 8 182 13t268 5q144 0 234 -10q107 -13 156 -72t49 -145q0 -50 -27.5 -109.5t-79 -148t-80.5 -154.5q62 5 78 5q137 0 137 -146q0 -74 -35 -114.5t-102 -40.5q-60 0 -162 10q-14 -101 -14 -207q0 -25 -1 -63t-1 -60q0 -178 -205 -178 q-133 0 -190.5 58t-57.5 186q0 111 29 256q-27 -2 -70 -2q-66 0 -100.5 40.5t-34.5 114.5q0 71 34.5 108.5t100.5 37.5q50 0 160 -7q75 183 170 289q-172 -16 -399 -16q-69 0 -104.5 56t-35.5 179z" />
<glyph unicode="8" horiz-adv-x="1261" d="M61 371q0 200 228 327q-185 149 -185 336q0 125 74.5 216t191 134t257.5 43q140 0 253.5 -40.5t184 -125t70.5 -200.5q0 -170 -189 -295q254 -151 254 -385q0 -127 -76 -219.5t-204 -138.5t-293 -46q-266 0 -416 100.5t-150 293.5zM418 401q0 -145 209 -145 q139 0 139 104q0 13 -3.5 25t-12.5 24t-18 22t-26 22t-29.5 20t-37 21t-39 21t-44.5 23l-46 23q-92 -63 -92 -160zM504 1055q0 -49 51 -88.5t154 -85.5q79 60 79 157q0 64 -42 97.5t-113 33.5q-129 0 -129 -114z" />
<glyph unicode="9" horiz-adv-x="1310" d="M72 924q0 233 144 368t398 135q298 0 456.5 -171t158.5 -500q0 -357 -183 -568t-487 -211q-66 0 -181.5 14t-164.5 32q-63 23 -93 51.5t-30 81.5q0 80 37.5 146.5t105.5 66.5q56 0 174.5 -44t174.5 -44q50 0 83.5 19t52 58t26.5 85.5t10 115.5q-108 -65 -238 -65 q-192 0 -318 115t-126 315zM494 922q0 -81 30.5 -126.5t112.5 -45.5q64 0 119 34q0 71 -2 118t-9 97t-20 78.5t-36.5 47t-57.5 18.5q-66 0 -101.5 -59t-35.5 -162z" />
<glyph unicode=":" horiz-adv-x="634" d="M102 199q0 92 63 152.5t152 60.5q92 0 153.5 -56t61.5 -157q0 -93 -62.5 -153t-152.5 -60q-92 0 -153.5 56t-61.5 157zM102 803q0 92 63 152.5t152 60.5q92 0 153.5 -56t61.5 -157q0 -93 -62.5 -153t-152.5 -60q-92 0 -153.5 56t-61.5 157z" />
<glyph unicode=";" horiz-adv-x="720" d="M51 -276q0 47 25 73t65 33q92 15 153 52t83 108q-19 -13 -68 -13q-71 0 -121.5 55t-50.5 156q0 94 59 152.5t148 58.5q113 0 193.5 -88.5t80.5 -259.5q0 -105 -35.5 -201t-93.5 -163t-133 -106.5t-153 -39.5q-77 0 -114.5 56.5t-37.5 126.5zM139 797q0 92 63 152.5 t152 60.5q92 0 153.5 -56t61.5 -157q0 -93 -62.5 -153t-152.5 -60q-92 0 -153.5 56t-61.5 157z" />
<glyph unicode="&#x3c;" horiz-adv-x="1105" d="M184 549q0 62 39 115q99 134 271 278.5t245 144.5q51 0 106.5 -57.5t55.5 -136.5q0 -43 -13.5 -66t-45.5 -51q-48 -40 -312 -227q79 -59 183.5 -132t128.5 -93q21 -19 31.5 -31t19 -34t8.5 -52q0 -80 -55.5 -137.5t-106.5 -57.5q-73 0 -245 145t-271 279q-39 53 -39 113z " />
<glyph unicode="=" horiz-adv-x="1382" d="M205 424q0 33 5.5 57.5t20.5 48.5t47 39t80 19q88 8 338 8q222 0 326 -8q92 -7 124 -50.5t32 -113.5t-32 -113.5t-124 -50.5q-104 -8 -326 -8q-250 0 -338 8q-48 4 -80 19t-47 39t-20.5 48.5t-5.5 57.5zM205 901q0 33 5.5 57t21 48t47 38.5t79.5 18.5q88 8 338 8 q222 0 326 -8q92 -7 124 -49.5t32 -112.5t-32 -113.5t-124 -50.5q-104 -8 -326 -8q-250 0 -338 8q-48 4 -80 19t-47 39t-20.5 48.5t-5.5 57.5z" />
<glyph unicode="&#x3e;" horiz-adv-x="1105" d="M184 207q0 30 9 52.5t19 34t32 30.5q24 20 128.5 93.5t182.5 131.5q-258 182 -311 227q-22 19 -32 30.5t-19 34t-9 52.5q0 79 55.5 136.5t106.5 57.5q73 0 245 -144.5t271 -278.5q39 -53 39 -115q0 -60 -39 -113q-99 -134 -271 -279t-245 -145q-51 0 -106.5 57.5 t-55.5 137.5z" />
<glyph unicode="?" horiz-adv-x="1144" d="M23 1206q0 99 86 137q185 84 432 84q84 0 158.5 -13.5t145.5 -46.5t121.5 -83.5t81.5 -131t31 -183.5q0 -78 -37 -152t-96.5 -130t-132 -103t-146 -77t-136.5 -46.5t-105 -16.5q-60 0 -98.5 51t-38.5 123q0 45 21.5 74.5t88.5 59.5q47 21 76 37t59 40t44 54t14 67 q0 74 -41 122t-113 48q-35 0 -79.5 -28t-92.5 -56t-90 -28q-65 0 -109 67t-44 131zM307 176q0 86 59 142.5t142 56.5q86 0 143.5 -52.5t57.5 -146.5q0 -87 -58.5 -143t-142.5 -56q-86 0 -143.5 52.5t-57.5 146.5z" />
<glyph unicode="@" horiz-adv-x="1959" d="M133 506q0 173 58 322t166.5 261.5t277 177t377.5 64.5q173 0 321.5 -54t252 -147t162 -222.5t58.5 -276.5q0 -233 -121 -368.5t-313 -135.5q-235 0 -235 246h-9q-64 -234 -303 -234q-49 0 -97.5 17t-95.5 52.5t-76.5 103.5t-29.5 157q0 62 14.5 123t44.5 117.5t72 99.5 t101.5 68.5t128.5 25.5q94 0 164 -67q25 69 118 69q100 0 157.5 -34t57.5 -95q0 -47 -13 -172.5t-13 -189.5q0 -42 6.5 -62t30.5 -20q36 0 62.5 21.5t41 53t23.5 75.5t11.5 79t2.5 74q0 92 -35 174t-99.5 146t-165.5 101.5t-224 37.5t-224.5 -29.5t-172.5 -82.5 t-119.5 -126.5t-71.5 -161.5t-23 -188q0 -117 31.5 -209.5t86.5 -155t133 -103.5t168 -59t196 -18q83 0 172.5 24.5t152.5 49t80 24.5q48 0 79.5 -53t31.5 -119q0 -16 -5.5 -28.5t-16.5 -21.5t-17 -12.5t-16 -8.5q-39 -18 -91.5 -36.5t-158 -38.5t-211.5 -20 q-153 0 -285.5 29.5t-243 92t-189 154t-122 221.5t-43.5 288zM862 461q0 -65 15 -89t43 -24q38 0 63 37t37 90q6 129 12 209q-28 8 -45 8q-58 0 -91.5 -65.5t-33.5 -165.5z" />
<glyph unicode="A" d="M18 133q0 124 72.5 363.5t163.5 455.5t156 322q40 67 68 99.5t79 52.5t131 20q96 0 165.5 -50.5t147.5 -195.5q129 -240 230.5 -590t101.5 -479q0 -133 -192 -133q-60 0 -100.5 8.5t-67 22.5t-44.5 45.5t-28.5 64.5t-23.5 94l-15 64h-409l-15 -68q-17 -76 -37 -120.5 t-54 -69.5t-75.5 -33t-111.5 -8q-142 0 -142 135zM528 592q86 4 138 4q43 0 125 -4q-56 216 -136 442q-78 -258 -127 -442z" />
<glyph unicode="B" horiz-adv-x="1366" d="M82 711q0 195 18 395q3 39 4.5 53t7.5 52t12.5 56t19.5 48t29.5 46.5t41.5 32.5t57 23q109 25 324 25q342 0 498.5 -102t156.5 -306q0 -91 -57 -168.5t-145 -117.5q117 -44 191.5 -127t74.5 -215q0 -119 -46.5 -203.5t-133.5 -131t-194.5 -67t-246.5 -20.5 q-213 0 -342 14q-61 7 -103 23t-68 36.5t-42 56t-23 70t-12 88.5q-22 215 -22 439zM532 272h107q258 0 258 166q0 142 -240 142q-67 0 -125 -7v-301zM532 786q88 10 197 13q115 71 115 186q0 82 -44.5 127t-148.5 45q-45 0 -119 -6v-365z" />
<glyph unicode="C" horiz-adv-x="1331" d="M66 711q0 150 41 274t109 206.5t157.5 139.5t184 82t192.5 25q119 0 210 -24.5t185 -74.5q58 -32 85 -63.5t27 -81.5q0 -66 -46.5 -138.5t-98.5 -72.5q-38 0 -85 22t-85 48.5t-87 48.5t-91 22q-209 0 -209 -413q0 -213 52 -308.5t165 -95.5q65 0 120 16t91 38.5t65 45 t54.5 38.5t46.5 16q41 0 73.5 -29t48.5 -70t24 -75.5t8 -55.5q0 -62 -68 -116q-88 -67 -220 -102.5t-265 -35.5q-101 0 -192.5 20t-183.5 72t-158.5 132.5t-108 211.5t-41.5 298z" />
<glyph unicode="D" horiz-adv-x="1413" d="M96 649q0 261 13 414q4 46 6.5 72t7 62.5t10.5 56.5t15 46.5t21.5 41.5t29.5 31t39.5 25.5t50.5 16.5q117 27 299 27q139 0 251 -22.5t209 -76t161.5 -138.5t101.5 -215t37 -300q0 -120 -24 -220.5t-64.5 -172t-98.5 -128t-121.5 -91.5t-137.5 -57.5t-143 -31.5t-141 -9 q-152 0 -274 14q-49 6 -79 13t-56.5 22t-40.5 33t-26 52.5t-18 74t-13 104.5q-15 156 -15 356zM553 285q47 -6 98 -6q254 0 254 411q0 173 -33 271t-100 138t-182 40h-37v-854z" />
<glyph unicode="E" horiz-adv-x="1144" d="M98 741q0 175 23 369q7 60 18.5 104.5t26 76t36 53t45 34.5t56 21t65 12.5t76.5 8.5q9 1 13 1q68 6 233 6q104 0 268 -8q79 -6 106.5 -40t27.5 -109q0 -29 -4 -53.5t-13.5 -43t-19 -33t-27.5 -25t-31.5 -18t-38.5 -12t-41 -7t-47 -4t-48 -1.5h-52q-36 0 -213 6v-221 q123 10 180 10q59 0 94.5 -4.5t66 -19t43.5 -44.5t13 -79q0 -43 -11 -73t-28 -47t-48 -26t-61 -11.5t-77 -2.5q-62 0 -172 10v-254q93 6 245 21.5t197 15.5q46 0 75.5 -28.5t39.5 -64.5t10 -79q0 -132 -84 -159q-97 -31 -436 -31q-252 0 -348 24q-71 18 -98.5 83t-42.5 212 q-17 168 -17 430z" />
<glyph unicode="F" horiz-adv-x="1067" d="M92 586q0 240 27 501q7 63 20 112.5t37 84.5t45 60.5t61.5 40.5t67.5 24t82.5 13t86.5 4.5t99 0.5h27q186 0 268 -8q80 -7 107 -40.5t27 -108.5q0 -29 -4 -53.5t-13.5 -43t-19 -33t-27.5 -25t-31.5 -18t-38.5 -12t-41 -7t-47 -4t-48 -1.5h-52q-41 0 -182 6v-223 q148 12 184 12q59 0 94.5 -4.5t66 -19t43.5 -44.5t13 -79q0 -43 -11 -73t-28 -47t-48 -26t-61 -11.5t-77 -2.5q-57 0 -176 14v-407q0 -87 -48 -127.5t-169 -40.5q-43 0 -71 4.5t-58 21t-48 48t-31.5 86.5t-17.5 135q-8 136 -8 291z" />
<glyph unicode="G" horiz-adv-x="1398" d="M59 711q0 150 40 274.5t107 207.5t155.5 140.5t182.5 83t191 25.5q237 0 439 -107q57 -31 84.5 -65t27.5 -84q0 -75 -55 -141t-113 -66q-45 0 -92 26.5t-82 57.5t-87.5 57.5t-106.5 26.5q-101 0 -157 -107.5t-56 -328.5q0 -220 54 -323t167 -103q129 0 229 34 q4 102 4 119l-2 70q-47 -31 -115 -31q-43 0 -69 26t-33.5 57.5t-7.5 70.5q0 65 16.5 107t63.5 53q72 16 241 16q71 0 121 -15.5t87.5 -53t56 -104t18.5 -165.5q0 -261 -119 -354q-87 -66 -232 -102t-282 -36q-101 0 -192 20t-181.5 72t-156 132.5t-106 211t-40.5 298.5z" />
<glyph unicode="H" horiz-adv-x="1492" d="M96 635q0 304 17 543q6 84 18.5 131.5t40.5 74.5t65.5 35t104.5 8q133 0 176 -59t43 -238v-313q94 12 213 12q100 0 176 -8v445q0 84 51 122.5t164 38.5q43 0 72 -3t54 -12t40 -24t27 -40t18 -58.5t10 -81.5q11 -140 11 -338q0 -152 -5.5 -403t-15.5 -320q-7 -42 -16 -66 t-31 -44.5t-60.5 -28.5t-99.5 -8q-111 0 -165 47.5t-54 157.5v301h-389v-344q0 -78 -46.5 -120t-164.5 -42q-65 0 -104 7.5t-68.5 29.5t-44 61.5t-20.5 104.5q-17 191 -17 432z" />
<glyph unicode="I" horiz-adv-x="679" d="M111 717q0 373 18 561q9 84 55.5 116.5t155.5 32.5q115 0 159 -34t52 -115q18 -188 18 -561q0 -356 -18 -567q-7 -84 -54 -117t-157 -33q-115 0 -160 34.5t-51 115.5q-18 203 -18 567z" />
<glyph unicode="J" horiz-adv-x="1017" d="M0 182q0 48 19.5 106t60.5 105t92 47q79 0 197 -135q18 -14 55 -14q43 0 59.5 37t16.5 141v721q0 71 13.5 119t41 73t62.5 35t85 10q69 0 108 -8t67.5 -34.5t40 -71.5t16.5 -123q12 -188 12 -514q0 -63 -1 -101.5t-5.5 -103t-13.5 -106.5t-27.5 -98.5t-44 -92.5t-65 -76 t-89.5 -63t-119.5 -38t-152.5 -15q-178 0 -315 61q-61 28 -87 57.5t-26 81.5z" />
<glyph unicode="K" horiz-adv-x="1351" d="M96 635q0 304 17 543q6 84 18.5 131.5t40.5 74.5t65.5 35t104.5 8q133 0 176 -59t43 -238v-256q124 134 272.5 300.5t182.5 201.5q55 58 121 58q59 0 121.5 -56.5t62.5 -111.5q0 -44 -14.5 -74t-51.5 -72q-182 -210 -333 -340l391 -487q35 -43 35 -94q0 -79 -75.5 -141 t-160.5 -62q-67 0 -127 51q-250 223 -424 551v-436q0 -78 -46.5 -120t-164.5 -42q-65 0 -104 7.5t-68.5 29.5t-44 61.5t-20.5 104.5q-17 191 -17 432z" />
<glyph unicode="L" horiz-adv-x="1112" d="M98 655q0 284 17 523q6 84 18.5 131.5t40.5 74.5t65.5 35t104.5 8q133 0 176 -59t43 -238v-788l19 2q322 35 405 35q46 0 75.5 -33t39.5 -72.5t10 -83.5q0 -28 -5 -54t-16 -52t-32.5 -44t-50.5 -24q-110 -22 -416 -22q-217 0 -332 22q-138 27 -156 320q-6 114 -6 319z " />
<glyph unicode="M" horiz-adv-x="1939" d="M90 557q0 312 49 576q53 294 346 294q76 0 135.5 -12.5t115 -43.5t98.5 -89t73 -143q86 -244 99 -535q51 247 118 471q58 188 141.5 270t239.5 82q256 0 291 -243q51 -380 51 -680q0 -230 -14 -357q-10 -88 -60 -117.5t-149 -29.5q-59 0 -96 7.5t-66 29t-42 62t-13 104.5 q0 83 6 268t6 297q0 86 -4 258h-24q-52 -250 -189 -672q-60 -184 -227 -184q-123 0 -192 37t-107 135q-16 42 -33 103t-29.5 115.5t-28 136.5t-23 127t-21.5 128t-17 101h-45v-873q0 -37 -2 -58.5t-11 -47.5t-27 -39.5t-51.5 -23t-82.5 -9.5q-115 0 -154.5 44.5t-50.5 156.5 q-10 86 -10 354z" />
<glyph unicode="N" horiz-adv-x="1525" d="M98 555q0 324 29 604q13 121 81.5 194.5t197.5 73.5q96 0 168 -30.5t142 -109.5t133 -215.5t132 -348.5q48 -141 82 -307h14q-2 131 -18.5 449.5t-16.5 387.5q0 108 44 144.5t155 36.5q152 0 160 -152q8 -196 7 -299q0 -438 -48 -747q-21 -126 -88.5 -181t-186.5 -55 q-95 0 -157.5 35t-130.5 145q-39 63 -76.5 148t-109.5 264q-4 10 -6.5 16t-6 15t-6.5 16q-71 176 -100 328h-21v-787q0 -30 -0.5 -44t-3.5 -37.5t-8.5 -34.5t-17 -26t-28 -21.5t-42 -11.5t-58.5 -5q-41 0 -69.5 4t-49 15t-32.5 23t-21 37t-13.5 47t-10.5 62q-19 142 -19 367 z" />
<glyph unicode="O" horiz-adv-x="1501" d="M66 711q0 150 41 273.5t108.5 206t157 139t183.5 81.5t192 25q102 0 194 -19t184.5 -70t159 -130t108.5 -209t42 -297q0 -153 -41.5 -279t-109.5 -209t-158.5 -139.5t-185 -81.5t-193.5 -25q-101 0 -192.5 20t-183 72t-157.5 132.5t-107.5 211.5t-41.5 298zM543 711 q0 -153 26 -244.5t69.5 -126.5t111.5 -35q40 0 71.5 11.5t59 40t45 74.5t27.5 116.5t10 163.5q0 119 -15 201t-44.5 126.5t-67 63t-88.5 18.5t-87 -18.5t-63.5 -63.5t-41 -126t-13.5 -201z" />
<glyph unicode="P" horiz-adv-x="1323" d="M96 653q0 282 19 445q7 56 13 91.5t16 72t23.5 58t34 42t48 32.5t65.5 21q117 27 303 27q337 0 495.5 -132t158.5 -372q0 -96 -20 -176.5t-52.5 -135.5t-77 -97.5t-90 -67.5t-95.5 -41t-89.5 -21.5t-75.5 -5.5q-122 0 -225 27v-258q0 -40 -6 -66t-25 -49.5t-58 -35 t-100 -11.5q-128 0 -179.5 39.5t-61.5 163.5q-21 237 -21 450zM547 674q72 -21 133 -21q90 0 143.5 71.5t53.5 170.5q0 136 -68.5 190t-228.5 54h-33v-465z" />
<glyph unicode="Q" horiz-adv-x="1490" d="M66 711q0 150 40 273.5t106.5 206t155 139t182 81.5t191.5 25q102 0 193.5 -19t183.5 -70t158 -130t107.5 -209t41.5 -297q0 -249 -100 -414.5t-262 -245.5q81 -70 179.5 -101.5t270.5 -31.5q74 0 113 -33t39 -108q0 -33 -2.5 -57.5t-17 -61t-40 -60t-76.5 -41.5 t-122 -18q-122 0 -241 45.5t-232 146.5t-189 246q-103 0 -195.5 20t-183 72.5t-155.5 133t-105 211t-40 297.5zM543 711q0 -426 200 -426q207 0 207 426q0 430 -209 430q-99 0 -148.5 -103t-49.5 -327z" />
<glyph unicode="R" horiz-adv-x="1337" d="M96 653q0 270 19 445q6 67 14 109t21.5 80t34.5 61t52.5 39.5t77.5 27.5q117 27 303 27q654 0 654 -496q0 -312 -207 -450l176 -254q29 -42 29 -82q0 -69 -68.5 -119.5t-150.5 -50.5q-247 0 -324 426q-79 2 -180 26v-280q0 -40 -6 -66t-25 -49.5t-58 -35t-100 -11.5 q-128 0 -179.5 39.5t-61.5 163.5q-21 237 -21 450zM547 694q59 -20 133 -20q91 0 144 66t53 163q0 135 -68 185.5t-229 50.5h-33v-445z" />
<glyph unicode="S" horiz-adv-x="1232" d="M41 219q0 56 51 123.5t107 67.5q34 0 76 -19.5t78 -43t96 -43t126 -19.5q158 0 158 59q0 19 -16 38.5t-48.5 40t-66 38.5t-84.5 45t-88 49q-185 111 -262.5 217t-77.5 270q0 124 78 216.5t204.5 138t282.5 45.5q201 0 387 -86q55 -25 74 -56t19 -86q0 -64 -46 -121 t-104 -57q-34 0 -76.5 16.5t-77 37t-82 37t-90.5 16.5q-60 0 -94.5 -15.5t-34.5 -44.5q0 -42 42.5 -83.5t160.5 -102.5q172 -87 244 -140q187 -136 203 -326q2 -20 2 -40q0 -92 -36.5 -165t-96 -119t-141 -76t-165.5 -42t-176 -12q-277 0 -434 91q-51 29 -71.5 63.5 t-20.5 87.5z" />
<glyph unicode="T" horiz-adv-x="1236" d="M6 1223q0 104 28.5 143t121.5 49q49 6 205.5 10.5t261.5 4.5t261.5 -4t205.5 -11q93 -10 121 -49t28 -143q0 -50 -18 -96t-60 -66q-58 -27 -188 -27q-48 0 -142 8q17 -353 17 -491q0 -190 -19 -375q-4 -40 -10.5 -65t-22 -49t-41.5 -37t-69 -21t-104 -8q-171 0 -185 160 q-18 174 -18 446q0 206 10 438q-58 -6 -117 -6q-130 0 -188 27q-42 20 -60 66t-18 96z" />
<glyph unicode="U" horiz-adv-x="1419" d="M84 748q0 268 18 452q7 77 19.5 120.5t41 68t66 31.5t105.5 7q35 0 55.5 -1t48 -6.5t43 -16.5t33 -31t26.5 -49.5t15 -73t6 -100.5v-492q0 -66 3.5 -115t14.5 -98t30 -80t51.5 -50t76.5 -19q56 0 93 32.5t54.5 94t24 124t6.5 146.5q0 122 -7 306t-7 268q0 38 9 65.5 t29.5 45t42 28t58.5 15t66.5 6t77.5 1.5q61 0 98 -30.5t45 -75.5q19 -108 19 -449q0 -94 -4.5 -171t-15 -162t-31.5 -152.5t-52 -133.5t-77 -114.5t-106 -86t-141.5 -56.5t-179.5 -19q-167 0 -287 42t-203.5 133t-124 239t-40.5 357z" />
<glyph unicode="V" horiz-adv-x="1282" d="M10 1268q0 75 49 117t134 42q56 0 90 -2.5t70 -12.5t57 -29t41 -51.5t32 -80.5t21 -116q71 -566 145 -801h35q67 190 113 441t69 497q3 37 13 62t33.5 48t68 34t111.5 11q170 0 170 -161q0 -278 -72 -583t-205 -523q-54 -89 -145 -129.5t-224 -40.5q-108 0 -198.5 46.5 t-138.5 133.5q-105 190 -187 569t-82 529z" />
<glyph unicode="W" horiz-adv-x="1931" d="M61 1071q0 79 2 117.5t13 94t34.5 81.5t68 46t110.5 20q65 0 105.5 -9t73.5 -35.5t48 -78t16 -133.5q7 -521 50 -871h22q57 184 92 357.5t78 445.5q20 89 72.5 129.5t179.5 40.5q96 0 138 -49.5t59 -143.5q19 -105 75 -355.5t103 -424.5h20q72 401 80 948q1 66 20 102.5 t69 55t141 18.5q85 0 123 -42.5t38 -133.5q0 -193 -10 -352t-47 -351t-100 -339q-52 -120 -140 -164.5t-229 -44.5q-109 0 -200.5 46.5t-135.5 133.5q-48 91 -106 277q-22 -90 -72 -242q-41 -125 -118 -170t-216 -45q-288 0 -362 250q-95 320 -95 821z" />
<glyph unicode="X" horiz-adv-x="1380" d="M57 119q0 65 74 194q73 135 289 387q-151 175 -251.5 331.5t-100.5 240.5q0 155 208 155q51 0 84.5 -6t69.5 -24.5t69 -55t70 -96.5q99 -162 156 -268q111 257 180 350q47 61 85.5 82t117.5 21q85 0 145 -31t60 -88q0 -76 -53 -176q-65 -127 -283 -424q346 -399 346 -545 q0 -84 -59.5 -127t-151.5 -43q-87 0 -147.5 35.5t-130.5 148.5l-166 266q-115 -223 -211 -352q-41 -56 -90 -80t-129 -24q-181 0 -181 129z" />
<glyph unicode="Y" horiz-adv-x="1202" d="M2 1290q0 137 170 137q156 0 224 -42.5t98 -163.5q28 -112 58.5 -227t47.5 -174l16 -58h23q28 58 53 122.5t44.5 131.5t31 110.5t26.5 106.5t17 72q17 67 64 96t143 29q94 0 139 -38t45 -124q0 -91 -51.5 -245t-148.5 -329.5t-209 -296.5q0 -14 6 -82.5t6 -119.5 q0 -54 -11.5 -91t-28.5 -57t-47 -31t-56 -13.5t-68 -2.5q-108 0 -161.5 44t-53.5 144q0 51 5 133.5t5 98.5q-141 209 -264 472t-123 398z" />
<glyph unicode="Z" horiz-adv-x="1218" d="M20 195q0 49 15.5 87.5t52.5 92.5q30 43 250.5 299.5t325.5 390.5q-52 6 -103 6q-80 0 -195 -18.5t-145 -18.5q-106 0 -143 53t-37 170q0 109 135 138q154 32 422 32q224 0 369 -22q98 -16 141 -72t43 -135q0 -78 -35 -158q-73 -152 -226 -353t-319 -341h47 q107 0 226.5 22.5t163.5 22.5q97 0 138.5 -59t41.5 -174q0 -52 -33.5 -89t-101.5 -49q-144 -24 -490 -24q-214 0 -352 16q-191 25 -191 183z" />
<glyph unicode="[" horiz-adv-x="862" d="M102 590q0 286 33 641q17 176 92.5 237.5t268.5 61.5q143 0 203.5 -34.5t60.5 -131.5q0 -74 -27 -119t-86 -45q-35 0 -65 4t-43 8l-13 5v-1258q43 16 121 16q113 0 113 -163q0 -97 -60.5 -131.5t-203.5 -34.5q-193 0 -268.5 61.5t-92.5 237.5q-33 355 -33 645z" />
<glyph unicode="\" horiz-adv-x="1120" d="M63 1434q0 70 62 122t172 52q64 0 113 -61.5t94 -168.5q23 -54 85.5 -198t102.5 -238.5t100.5 -237t100 -242.5t78.5 -203.5t58.5 -171t19.5 -97.5q0 -72 -65 -118t-175 -46q-21 0 -40 6t-33 12.5t-30 24t-24.5 27t-23.5 36.5t-20 37t-21.5 43.5t-20.5 42.5 q-94 193 -313.5 739.5t-219.5 639.5z" />
<glyph unicode="]" horiz-adv-x="862" d="M102 -188q0 163 113 163q35 0 65 -4t43 -8l13 -4v1258q-43 -17 -121 -17q-59 0 -86 45t-27 119q0 97 60.5 131.5t204.5 34.5q193 0 268 -61.5t92 -237.5q33 -355 33 -641q0 -290 -33 -645q-17 -176 -92 -237.5t-268 -61.5q-144 0 -204.5 34.5t-60.5 131.5z" />
<glyph unicode="^" horiz-adv-x="1363" d="M143 887q0 73 145 245t279 271q53 39 115 39q60 0 113 -39q134 -99 279 -271t145 -245q0 -51 -57.5 -106.5t-137.5 -55.5q-43 0 -66 13.5t-51 45.5q-20 24 -93 128.5t-132 183.5q-187 -264 -227 -312q-19 -21 -31 -31.5t-34 -19t-52 -8.5q-80 0 -137.5 55.5t-57.5 106.5z " />
<glyph unicode="_" horiz-adv-x="1259" d="M102 -184q0 69 31.5 111t122.5 50q121 11 379 11q223 0 366 -11q92 -7 124 -49t32 -112t-32 -113.5t-124 -50.5q-130 -10 -366 -10q-269 0 -379 10q-48 4 -80 19t-47.5 39t-21 48.5t-5.5 57.5z" />
<glyph unicode="`" horiz-adv-x="516" d="M25 1503q0 54 51 113t123 59q33 0 76.5 -33.5t85.5 -86t68 -90t48 -72.5q23 -38 23 -72q0 -43 -47 -83t-91 -40q-6 0 -12.5 0.5t-13 2.5t-11 3.5t-12 5t-11 5.5t-12 7t-11.5 7t-12.5 8t-12.5 8q-85 55 -166 141q-36 39 -49.5 63.5t-13.5 53.5z" />
<glyph unicode="a" horiz-adv-x="1208" d="M72 305q0 76 31.5 135.5t84.5 94.5t115 53t129 18q122 0 219 -43q0 58 -1 89.5t-6 67t-14.5 52.5t-26.5 32.5t-42.5 21t-62.5 5.5q-51 -36 -116 -68t-114 -32q-68 0 -111.5 46t-43.5 122q0 51 16.5 78.5t73.5 50.5q51 21 157 38t218 17q118 0 204 -25.5t141 -71t88 -120 t45.5 -162t12.5 -206.5q0 -65 -8 -209q19 8 47 8q59 0 85 -30t26 -113q0 -44 -16.5 -75.5t-40.5 -48t-62.5 -26t-70.5 -12t-77 -2.5q-144 0 -184 125q-65 -62 -154.5 -97.5t-183.5 -35.5q-73 0 -134 16t-113 51t-81.5 100.5t-29.5 155.5zM438 322q0 -109 119 -109 q13 0 25.5 2.5t20 5t17 8.5t13 8.5t11.5 9.5l7 7v137q-45 27 -106 27q-41 0 -74 -24.5t-33 -71.5z" />
<glyph unicode="b" horiz-adv-x="1277" d="M-4 1417q0 52 26 90.5t80 46.5q70 11 142 11q142 0 214 -61t81 -204v-208q0 -66 -7 -138q97 129 261 129q413 0 413 -555q0 -180 -73 -305t-199 -184t-297 -59q-113 0 -195.5 16.5t-132.5 42.5t-82.5 69t-47 86.5t-23.5 104.5q-21 280 -21 442q0 169 12 525 q-18 -6 -41 -6q-60 0 -85 37.5t-25 119.5zM543 262q61 -22 110 -22q158 0 158 288q0 135 -34.5 199t-106.5 64q-70 0 -127 -105v-424z" />
<glyph unicode="c" horiz-adv-x="1136" d="M72 535q0 142 42.5 248.5t119.5 171t178.5 96.5t226.5 32q224 0 344 -57q56 -26 70 -52t14 -85q0 -70 -46 -136.5t-110 -66.5q-89 0 -221 141q-48 0 -80.5 -11.5t-60 -42t-40.5 -89.5t-13 -149q0 -142 44.5 -213.5t112.5 -71.5q54 0 114.5 25.5t116.5 51t99 25.5 q30 0 52 -22t32 -54.5t14 -59t4 -46.5q0 -37 -8 -57t-30 -37q-54 -37 -175.5 -68t-238.5 -31q-263 0 -412 139t-149 419z" />
<glyph unicode="d" horiz-adv-x="1316" d="M72 528q0 141 36.5 249.5t101.5 174t148.5 98.5t182.5 33q158 0 233 -112q-10 175 -10 215v78q-20 -4 -37 -4q-60 0 -85.5 38t-25.5 119q0 52 26.5 90.5t80.5 46.5q70 11 141 11q142 0 214 -60.5t81 -201.5q10 -193 10 -521q0 -216 -14 -489q24 4 35 4q59 0 84.5 -30 t25.5 -113q0 -44 -16.5 -75.5t-40.5 -48t-62.5 -26t-70 -12t-76.5 -2.5q-140 0 -190 133q-123 -146 -303 -146q-226 0 -347.5 139t-121.5 412zM485 541q0 -156 34.5 -227.5t119.5 -71.5q80 0 123 84v426q-60 67 -119 67q-84 0 -121 -63t-37 -215z" />
<glyph unicode="e" horiz-adv-x="1148" d="M72 524q0 142 41 250t116 175t175.5 100.5t224.5 33.5q28 0 59.5 -3t77 -12.5t86.5 -25.5t83.5 -44.5t73.5 -66t50.5 -94t19.5 -124.5q0 -74 -27.5 -131.5t-70 -91.5t-99 -56t-108 -29.5t-104.5 -7.5q-97 0 -178 29q10 -93 47.5 -134.5t103.5 -41.5q54 0 116.5 24.5 t120.5 49t101 24.5q30 0 52 -22t32 -54.5t14 -59t4 -46.5q0 -36 -8 -56.5t-31 -37.5q-52 -36 -177 -65.5t-244 -29.5q-263 0 -407 133.5t-144 413.5zM487 606q44 -14 86 -14q144 0 144 133q0 51 -22.5 78.5t-61.5 27.5q-128 0 -146 -225z" />
<glyph unicode="f" horiz-adv-x="847" d="M20 895q0 129 97 129h84q-15 112 -15 143q0 105 32.5 184t90 125t128 68.5t153.5 22.5q153 0 266 -45q49 -19 71.5 -43t22.5 -60q0 -74 -39 -135t-104 -61q-31 0 -58.5 26t-64.5 80q-20 0 -34 -1.5t-25.5 -8.5t-18.5 -13.5t-12 -24t-8 -31t-4.5 -44t-1.5 -54v-69.5v-59 h92q60 0 88 -28.5t28 -92.5q0 -65 -23 -99t-87 -34h-98v-614q0 -86 -52.5 -121t-162.5 -35q-112 0 -155.5 39.5t-43.5 130.5q0 8 14 596h-63q-97 0 -97 129z" />
<glyph unicode="g" horiz-adv-x="1214" d="M51 -213q0 99 59 160t154 88q-63 33 -96 84t-33 108q0 73 50.5 126.5t119.5 74.5q-115 41 -171 119.5t-56 183.5q0 171 135.5 261.5t378.5 90.5q86 0 143 -8q1 38 11.5 78.5t34.5 84t58 77t87.5 55t117.5 21.5q77 0 122.5 -40.5t45.5 -107.5q0 -68 -41 -124t-98 -56 q-66 0 -127 108q-22 -3 -44.5 -40.5t-31.5 -83.5q256 -79 256 -316q0 -153 -142.5 -249.5t-391.5 -96.5h-43q-88 -10 -88 -53q0 -24 35 -34.5t114 -10.5q70 0 126 -3t118.5 -13t110 -27t92 -45.5t73.5 -67.5t46.5 -95t17.5 -126q0 -196 -160 -293.5t-440 -97.5 q-274 0 -408.5 64.5t-134.5 203.5zM444 -143q0 -56 47 -84.5t121 -28.5q50 0 91 11.5t70.5 40.5t29.5 73q0 45 -21 70.5t-86 40.5t-186 16q-66 -62 -66 -139zM459 733q0 -133 133 -133t133 133q0 66 -35.5 102.5t-97.5 36.5t-97.5 -37.5t-35.5 -101.5z" />
<glyph unicode="h" horiz-adv-x="1372" d="M-4 1419q0 52 26 90.5t80 46.5q70 11 142 11q145 0 220 -61t75 -203v-365q106 145 288 145q91 0 159.5 -25.5t121 -83t79.5 -157t27 -239.5v-273q6 2 19 2q59 0 84.5 -30t25.5 -113q0 -44 -16.5 -75.5t-40.5 -48t-62.5 -26t-70 -12t-76.5 -2.5q-72 0 -122.5 15.5 t-78.5 38.5t-43.5 62.5t-19.5 75.5t-4 89v254q0 133 -21 183t-81 50q-56 0 -102.5 -51t-65.5 -117v-438q0 -45 -10 -74.5t-26.5 -47t-50 -26.5t-67 -11.5t-90.5 -2.5q-85 0 -122 41.5t-44 114.5q-16 187 -16 366q0 242 28 744q-20 -4 -35 -4q-60 0 -85 37.5t-25 119.5z" />
<glyph unicode="i" horiz-adv-x="743" d="M41 936q0 52 26 90.5t80 46.5q64 10 138 10q142 0 214 -61t81 -203q8 -107 8 -252q0 -109 -17 -262q6 2 21 2q59 0 84.5 -30t25.5 -113q0 -44 -17.5 -75.5t-42.5 -48t-64.5 -26t-72 -12t-77.5 -2.5q-72 0 -122.5 15.5t-78.5 38.5t-43.5 62.5t-19.5 75.5t-4 89l20 479 q-8 -2 -28 -2q-111 0 -111 178zM123 1378q0 92 64.5 139.5t152.5 47.5q96 0 156.5 -45t60.5 -142q0 -192 -217 -192q-107 0 -162 51.5t-55 140.5z" />
<glyph unicode="j" horiz-adv-x="671" d="M-225 -336q0 106 43 179t106 73q39 0 87.5 -44.5t84.5 -102.5q23 0 39 6t27 22t17 34t9 52t4 64.5t1 83.5v745q-41 -18 -80 -18q-111 0 -111 178q0 52 26.5 90.5t80.5 46.5q64 10 172 10q143 0 215.5 -64.5t85.5 -219.5q12 -137 12 -420q0 -154 -13 -277.5t-36 -212.5 t-58.5 -155t-76.5 -107t-95 -65.5t-108 -33.5t-121 -9q-141 0 -226 35.5t-85 109.5zM121 1378q0 92 64.5 139.5t152.5 47.5q96 0 156.5 -45t60.5 -142q0 -192 -217 -192q-107 0 -162 51.5t-55 140.5z" />
<glyph unicode="k" horiz-adv-x="1277" d="M-4 1419q0 52 26 90.5t80 46.5q70 11 142 11q145 0 220 -61t75 -203v-566q108 113 270 231.5t248 118.5q65 0 109 -64t44 -132q0 -62 -65 -100l-234 -140l160 -393q62 41 111 41t77.5 -45t28.5 -113q0 -82 -75.5 -121.5t-194.5 -39.5q-154 0 -254 129.5t-127 379.5 l-98 -57v-270q0 -45 -10 -74.5t-26.5 -47t-50 -26.5t-67 -11.5t-90.5 -2.5q-85 0 -122 41.5t-44 114.5q-16 187 -16 366q0 242 28 744q-20 -4 -35 -4q-60 0 -85 37.5t-25 119.5z" />
<glyph unicode="l" horiz-adv-x="749" d="M-4 1419q0 52 26 90.5t80 46.5q70 11 142 11q143 0 218.5 -60.5t76.5 -199.5v-897q0 -74 14.5 -99.5t44.5 -25.5q12 0 35 3t33 3q35 0 57.5 -23.5t29.5 -51.5t7 -60q0 -96 -65 -137.5t-212 -41.5q-155 0 -237.5 67t-102.5 183q-28 181 -28 422q0 259 26 617 q-20 -4 -35 -4q-60 0 -85 37.5t-25 119.5z" />
<glyph unicode="m" horiz-adv-x="2068" d="M37 936q0 52 26 90.5t80 46.5q64 10 142 10q125 0 183 -40t58 -132q0 -15 -4 -47h19q44 100 124.5 159.5t194.5 59.5q263 0 344 -229v10q44 100 125 159.5t195 59.5q186 0 286.5 -121t100.5 -395v-262q6 2 18 2q59 0 85 -30t26 -113q0 -44 -16.5 -75.5t-40.5 -48 t-62.5 -26t-70 -12t-76.5 -2.5q-72 0 -122.5 15t-78.5 38.5t-44 63t-20 75.5t-4 89v243q0 135 -21 189.5t-81 54.5q-54 0 -96.5 -52.5t-59.5 -121.5v-27v-362q0 -49 -4 -83t-15.5 -57t-24 -35.5t-38.5 -19.5t-50.5 -8.5t-67.5 -1.5q-123 0 -164 44.5t-41 172.5v307 q0 135 -21.5 189.5t-81.5 54.5q-54 0 -96 -52t-59 -120v-418q0 -39 -1 -59t-7 -44t-18 -35t-33.5 -22t-54 -14.5t-79.5 -3.5q-99 0 -153.5 35t-63.5 121q-12 118 -12 266q0 144 18 340q-20 -4 -33 -4q-110 0 -110 178z" />
<glyph unicode="n" horiz-adv-x="1417" d="M37 936q0 52 26 90.5t80 46.5q64 10 142 10q125 0 183 -40t58 -132q0 -15 -4 -47h19q43 98 129.5 158.5t201.5 60.5q186 0 287 -121t101 -395v-262q6 2 18 2q59 0 85 -30t26 -113q0 -44 -16.5 -75.5t-40.5 -48t-62.5 -26t-70.5 -12t-77 -2.5q-71 0 -121.5 15t-78.5 38 t-43.5 62t-20 75t-4.5 89v245q0 135 -21 189.5t-81 54.5q-56 0 -102.5 -54t-65.5 -124v-412q0 -39 -1 -59t-7 -44t-18 -35t-33.5 -22t-54 -14.5t-79.5 -3.5q-111 0 -159.5 33.5t-57.5 122.5q-12 118 -12 266q0 146 18 342q-15 -6 -33 -6q-110 0 -110 178z" />
<glyph unicode="o" horiz-adv-x="1253" d="M72 526q0 142 41.5 250t117 174.5t175 99.5t221.5 33t221.5 -33t175 -99.5t117 -174.5t41.5 -250q0 -270 -147.5 -407t-407.5 -137q-261 0 -408 137t-147 407zM489 526q0 -153 30.5 -216.5t107.5 -63.5q76 0 106.5 63.5t30.5 216.5q0 154 -32.5 223.5t-104.5 69.5 t-105 -69.5t-33 -223.5z" />
<glyph unicode="p" horiz-adv-x="1327" d="M35 936q0 51 28 89.5t82 47.5q64 10 134 10q122 0 174.5 -38t52.5 -127q0 -14 -4 -54h14q15 39 38 74t59.5 69.5t92.5 55t123 20.5q426 0 426 -555q0 -135 -39.5 -240.5t-110 -172t-164.5 -101t-206 -34.5q-89 0 -157 30v-332q0 -159 -205 -159q-113 0 -156.5 40.5 t-48.5 112.5q-14 192 -14 406q0 269 28 684q-16 -4 -32 -4q-115 0 -115 178zM578 266q60 -33 124 -33q74 0 116 73.5t42 221.5q0 242 -141 242q-81 0 -141 -147v-357z" />
<glyph unicode="q" horiz-adv-x="1296" d="M72 530q0 141 40 249t111 173.5t161.5 98t197.5 32.5q248 0 348 -176q-2 12 -2 35q0 85 39.5 119.5t134.5 34.5q40 0 69.5 -10.5t45.5 -25.5t25 -38t11 -41t2 -41q0 -83 -32 -174t-70 -152q25 -313 25 -553q0 -183 -15 -389q-5 -72 -48.5 -112.5t-156.5 -40.5 q-204 0 -204 159v363q-95 -64 -213 -64q-226 0 -347.5 140t-121.5 413zM485 530q0 -154 34 -221t120 -67q73 0 115 73v424q-53 60 -111 60q-83 0 -120.5 -65t-37.5 -204z" />
<glyph unicode="r" horiz-adv-x="919" d="M37 936q0 52 27 89.5t83 47.5q64 10 132 10q126 0 180.5 -58.5t54.5 -199.5q0 -36 -2 -59l2 -4h16q20 153 92.5 237t155.5 84q131 0 131 -137q0 -121 -42 -196.5t-91 -75.5q-30 0 -55 14.5t-59 48.5q-26 -41 -50 -142t-30 -200v-217q0 -39 -1 -59t-7 -44t-18 -35 t-33.5 -22t-54 -14.5t-79.5 -3.5q-111 0 -159.5 33.5t-57.5 122.5q-12 118 -12 266q0 144 18 340q-20 -4 -33 -4q-108 0 -108 178z" />
<glyph unicode="s" horiz-adv-x="1064" d="M61 170q0 43 11 86t40.5 78t73.5 35q27 0 58.5 -14t56.5 -34t46.5 -41t33 -35t12.5 -16q46 -12 88 -12q62 0 88.5 8.5t26.5 32.5q0 11 -10 22t-32 24.5t-42 24t-55 28t-56 28.5q-168 91 -231.5 172.5t-63.5 208.5q0 102 67 176t165.5 107.5t212.5 33.5q209 0 338 -63 q45 -22 59.5 -52t14.5 -71q0 -24 -6.5 -51.5t-21 -57.5t-44 -49.5t-68.5 -19.5q-44 0 -95 32.5t-78.5 61t-31.5 35.5q-54 0 -87 -13.5t-33 -39.5q0 -10 2 -17t8.5 -14t13 -12t20 -12.5t25 -12.5t34 -15.5t40.5 -19.5q204 -99 277 -181t73 -208q0 -326 -489 -326 q-122 0 -220.5 23.5t-146.5 46.5q-45 22 -59.5 52t-14.5 71z" />
<glyph unicode="t" horiz-adv-x="827" d="M20 895q0 129 97 129h67q-28 88 -28 172q0 97 57.5 153t175.5 56q193 0 193 -152q0 -38 -31 -229h121q60 0 88 -28.5t28 -92.5q0 -65 -23 -99t-87 -34h-129v-360q0 -75 15 -100t48 -25q25 0 56.5 5t48.5 5q100 0 100 -139q0 -67 -42 -108t-111 -56t-172 -15 q-83 0 -146 27t-101 71t-62 109t-33 133t-9 150t17 299h-41q-97 0 -97 129z" />
<glyph unicode="u" horiz-adv-x="1384" d="M20 920q0 45 11 75t29 48t55 26.5t73.5 11t100.5 2.5q86 0 139.5 -13t81.5 -43.5t37.5 -69t9.5 -101.5v-321q0 -138 18.5 -190t77.5 -52q67 0 110.5 77t43.5 154v381q0 39 1 58.5t7 44t17.5 35.5t33 22t54 14.5t79.5 3.5q110 0 155 -32.5t54 -122.5q13 -127 13 -266 q0 -145 -23 -369q24 4 39 4q59 0 85 -30t26 -113q0 -54 -24.5 -89t-70 -50.5t-86.5 -20t-98 -4.5q-34 0 -61.5 6.5t-46 14.5t-33 24.5t-22 28.5t-14.5 34.5t-9 33.5t-6 35l-3 15h-20q-48 -95 -130.5 -150t-184.5 -55q-131 0 -214 48.5t-128 163t-45 303.5v286q-6 -2 -21 -2 q-59 0 -85 30.5t-26 113.5z" />
<glyph unicode="v" horiz-adv-x="1239" d="M-16 920q0 38 6.5 65t23 45t36 28.5t54 16t67 7t85.5 1.5q114 0 174 -22.5t81.5 -65t29.5 -125.5q3 -22 9.5 -110.5t14 -156.5t30 -166t56.5 -175h37q44 51 75.5 167.5t31.5 229.5q-41 198 -41 297q0 59 50.5 93t151.5 34q121 0 166 -74.5t45 -224.5q0 -115 -19.5 -228 t-61.5 -218t-102.5 -185t-148.5 -128t-192 -48q-109 0 -172 15.5t-103.5 50.5t-88.5 107q-70 106 -110 278t-50 350q-8 -2 -25 -2q-58 0 -84 30.5t-26 113.5z" />
<glyph unicode="w" horiz-adv-x="1732" d="M2 936q0 60 17.5 92.5t62.5 42.5q52 12 156 12q106 0 172 -16q63 -17 92 -72.5t37 -158.5q1 -18 4 -101.5t6 -141t13 -152t26 -179.5h37q11 33 21 71.5t19 83.5t15.5 80t14.5 87t11.5 76t10.5 76t8 61q13 89 62.5 125t154.5 36q83 0 128.5 -30t57.5 -97q4 -22 27.5 -229 t52.5 -340h33q40 63 64.5 171.5t27.5 225.5q-45 158 -45 299q0 58 47.5 92.5t134.5 34.5q51 0 86 -14.5t55.5 -37.5t31.5 -64t14.5 -81.5t3.5 -101.5q0 -178 -25 -320t-78 -253.5t-144 -172t-216 -60.5q-224 0 -293 131q-30 59 -49 163q-35 -140 -114 -218.5t-203 -78.5 q-125 0 -208 43t-130 152q-42 100 -63 275.5t-23 359.5q-16 -4 -29 -4q-84 0 -84 133z" />
<glyph unicode="x" horiz-adv-x="1206" d="M31 956q0 91 90 113q60 14 162 14q120 0 185.5 -41t141.5 -159q45 -74 66 -107q73 153 115 215q36 53 72 72.5t93 19.5q93 0 131.5 -30.5t38.5 -85.5q0 -66 -87 -187.5t-205 -240.5q95 -144 184 -267q29 21 69 21q42 0 68.5 -34.5t26.5 -100.5q0 -45 -16 -77t-37.5 -49 t-55 -26.5t-58.5 -11.5t-57 -2q-97 0 -156.5 20t-88 46.5t-81.5 94.5q-1 2 -2 3t-2.5 3t-2.5 3q-20 24 -56 71t-49 64q-80 -161 -117 -211q-44 -57 -83 -79.5t-99 -22.5q-172 0 -172 127q0 66 90.5 188t210.5 244q-81 127 -162 272q-28 -14 -51 -14q-48 0 -77 38t-29 117z " />
<glyph unicode="y" horiz-adv-x="1226" d="M0 920q0 45 12.5 75.5t32.5 47.5t58.5 26t75.5 11.5t100 2.5q85 0 139.5 -14t84.5 -46t42 -70.5t18 -102.5q1 -11 10 -103.5t17 -150t30.5 -155t53.5 -179.5q9 -20 31 -20q14 0 32 6q49 221 49 409q-3 15 -12 59.5t-13 65.5t-9.5 56t-8 63.5t-2.5 54.5q0 56 59.5 91.5 t149.5 35.5q121 0 163 -71.5t42 -227.5q0 -126 -12 -247.5t-40 -246.5t-70 -234t-107 -205.5t-146 -165.5t-191 -108.5t-239 -39.5q-137 0 -224 46t-87 112q0 97 38.5 167t104.5 70q56 0 124 -46t106 -97q140 0 233 188q-100 1 -159.5 17.5t-98.5 50.5t-86 105 q-70 106 -110 279t-50 351q-24 -4 -37 -4q-104 0 -104 144z" />
<glyph unicode="z" horiz-adv-x="1107" d="M72 918q0 51 41.5 88.5t117.5 52.5q120 24 310 24q187 0 299 -28q161 -39 161 -215q0 -64 -53 -155.5t-129 -176.5t-151 -155t-129 -107q36 -4 65 -4q66 0 109 12q81 71 130.5 100t104.5 29q58 0 88.5 -64t30.5 -137q0 -31 -4 -55t-17 -51.5t-41.5 -45.5t-72.5 -24 q-149 -20 -381 -20q-229 0 -336 16q-71 11 -104 68.5t-33 119.5q0 43 15 80.5t67 89.5q39 39 137 130t175.5 170t135.5 153q-40 12 -102 12q-40 0 -70 -6q-151 -117 -233 -117q-35 0 -66 37.5t-48 87.5t-17 91z" />
<glyph unicode="{" horiz-adv-x="913" d="M102 594q0 93 27.5 129.5t95.5 36.5q74 0 74 84q0 52 -15.5 162.5t-15.5 169.5q0 162 102.5 257t278.5 95q244 0 244 -137q0 -65 -32 -114.5t-87 -49.5q-12 0 -40 7t-40 7q-69 0 -69 -104q0 -53 19.5 -151t19.5 -148q0 -199 -220 -226v-37q220 -27 220 -225 q0 -50 -19.5 -148t-19.5 -151q0 -102 69 -102q12 0 40 7t40 7q55 0 87 -49.5t32 -114.5q0 -137 -244 -137q-176 0 -278.5 95t-102.5 255q0 59 15.5 169.5t15.5 162.5q0 84 -74 84q-68 0 -95.5 36.5t-27.5 129.5z" />
<glyph unicode="|" horiz-adv-x="1003" d="M305 672q0 235 7.5 503.5t13.5 321.5q5 44 21.5 73t43.5 42t52 17.5t59 4.5t59 -4.5t52 -17.5t43.5 -42t21.5 -73q6 -51 13 -325.5t7 -499.5q0 -240 -7.5 -546.5t-12.5 -375.5q-3 -36 -15 -62.5t-28.5 -41t-40.5 -22.5t-44.5 -10.5t-47.5 -2.5t-47.5 2.5t-44.5 10.5 t-40 22.5t-28.5 41t-15.5 62.5q-6 61 -13.5 372t-7.5 550z" />
<glyph unicode="}" horiz-adv-x="892" d="M102 -201q0 65 32 114.5t87 49.5q12 0 40.5 -7t39.5 -7q70 0 70 102q0 53 -19.5 151t-19.5 148q0 198 219 225v37q-219 27 -219 226q0 50 19.5 148t19.5 151q0 104 -70 104q-11 0 -39.5 -7t-40.5 -7q-55 0 -87 49.5t-32 114.5q0 137 244 137q176 0 278.5 -95t102.5 -257 q0 -59 -15.5 -169.5t-15.5 -162.5q0 -84 74 -84q68 0 95.5 -36.5t27.5 -129.5t-27.5 -129.5t-95.5 -36.5q-74 0 -74 -84q0 -52 15.5 -162.5t15.5 -169.5q0 -160 -102.5 -255t-278.5 -95q-244 0 -244 137z" />
<glyph unicode="~" horiz-adv-x="1165" d="M102 559q0 36 25 76q18 27 40.5 52t58.5 56.5t84.5 50.5t101.5 19q71 0 144.5 -22.5t134 -45t100.5 -22.5q39 44 69 61t64 17q53 0 96 -55.5t43 -118.5q0 -32 -19 -62q-18 -29 -42 -57t-60.5 -60.5t-85.5 -52.5t-102 -20q-70 0 -140.5 21.5t-132.5 43t-112 21.5 q-58 -78 -136 -78q-49 0 -90 58t-41 118z" />
<glyph unicode="&#xa1;" horiz-adv-x="847" d="M184 -106q0 330 54 522q23 85 70 117t114 32q70 0 117.5 -32t70.5 -117q54 -192 54 -522q0 -109 -60.5 -168.5t-181.5 -59.5q-118 0 -178 59.5t-60 168.5zM223 885q0 94 57.5 146t143.5 52q84 0 142.5 -55.5t58.5 -142.5q0 -94 -57.5 -146.5t-143.5 -52.5 q-83 0 -142 56.5t-59 142.5z" />
<glyph unicode="&#xa2;" horiz-adv-x="1126" d="M72 535q0 249 121 383.5t333 158.5q-24 86 -24 133q0 42 12.5 70.5t36 42.5t48.5 19.5t58 5.5q66 0 111 -33.5t45 -104.5q0 -56 -27 -135q119 -14 187 -49q86 -48 86 -135q0 -52 -54 -118t-104 -66q-36 0 -77.5 30t-79 60t-64.5 30q-55 0 -89 -11t-59.5 -42.5t-36 -89 t-10.5 -149.5q0 -148 39.5 -216.5t118.5 -68.5q54 0 114.5 25.5t116.5 51t99 25.5q30 0 52 -22t32 -54.5t14 -59t4 -46.5q0 -36 -8 -56.5t-31 -37.5q-71 -51 -250 -84q27 -75 27 -129q0 -42 -13 -70.5t-36.5 -42t-48.5 -19t-58 -5.5q-66 0 -110.5 33t-44.5 104q0 53 22 121 q-217 24 -334.5 161t-117.5 390z" />
<glyph unicode="&#xa3;" d="M143 147q0 52 20.5 97t63.5 65q37 20 62 36.5t54 43.5t47.5 64.5t27.5 85.5q-106 -4 -125 -4q-41 0 -68.5 11.5t-41 33.5t-18.5 46t-5 56q0 68 27.5 106.5t105.5 38.5q51 0 88 -2q-43 118 -43 222q0 184 131.5 283.5t359.5 99.5q186 0 312 -50q84 -33 84 -114 q0 -75 -34.5 -133t-96.5 -58q-51 0 -117 38t-111 38q-94 0 -94 -115q0 -21 2.5 -41.5t9.5 -46t11 -39t15.5 -47.5t14.5 -43q122 8 160 8q78 0 107.5 -38t29.5 -105q0 -69 -28.5 -109t-108.5 -40q-59 0 -139 6q-26 -68 -86 -123.5t-137 -85.5v-17h26q93 7 207.5 18t182 17 t96.5 6q65 0 101 -44t36 -119q0 -44 -3.5 -72.5t-14 -56t-33 -43.5t-58.5 -23q-69 -14 -254 -14q-496 0 -657 18q-109 12 -109 145z" />
<glyph unicode="&#xa4;" horiz-adv-x="1558" d="M102 299q0 80 123 190q-55 104 -55 238q0 140 49 238q-117 108 -117 184q0 82 67.5 141.5t135.5 59.5q99 0 209 -140q118 37 264 37q148 0 266 -37q110 140 209 140q67 0 135 -59t68 -142q0 -74 -115 -182q50 -103 50 -240q0 -132 -52 -242q117 -111 117 -186 q0 -82 -67.5 -141.5t-135.5 -59.5q-101 0 -211 140q-122 -39 -264 -39q-149 0 -262 43v-2q-109 -142 -211 -142q-67 0 -135 59t-68 142zM573 727q0 -111 58 -174.5t147 -63.5q88 0 146.5 63t58.5 175q0 113 -59 173.5t-146 60.5q-84 0 -144.5 -61t-60.5 -173z" />
<glyph unicode="&#xa5;" horiz-adv-x="1292" d="M63 1294q0 61 32.5 97t125.5 36q58 0 91 -1.5t68 -9t54 -20t40 -36.5t36 -56.5t33 -82.5l123 -344h22q88 156 166 407q26 84 71.5 115t141.5 31q91 0 127.5 -36.5t36.5 -125.5q0 -108 -103 -287.5t-229 -292.5q31 2 78 2q82 0 114.5 -27t32.5 -88q0 -60 -31 -85t-116 -25 q-78 0 -129 2q0 -15 1 -43t1 -43q98 4 127 4q84 0 115.5 -23.5t31.5 -82.5q0 -62 -31.5 -90.5t-115.5 -28.5q-29 0 -123 4q-4 -56 -20.5 -91t-49 -50t-62 -19t-79.5 -4q-101 0 -154.5 38.5t-60.5 125.5q-102 -4 -123 -4q-82 0 -112.5 27.5t-30.5 88.5q0 60 30 84.5t113 24.5 q74 0 127 -2q0 13 1 41t1 43q-53 -2 -129 -2q-83 0 -113 24t-30 84q0 61 31 89t112 28q19 0 113 -4q-118 108 -236.5 297.5t-118.5 310.5z" />
<glyph unicode="&#xa6;" horiz-adv-x="1003" d="M307 106q0 162 19 306q6 44 22.5 73t43 42t51.5 17.5t59 4.5t59 -4.5t51.5 -17.5t43 -42t22.5 -73q18 -136 18 -306q0 -178 -18 -325q-7 -59 -36.5 -91.5t-61 -40t-78.5 -7.5t-78.5 7.5t-61 40t-36.5 91.5q-19 155 -19 325zM307 1192q0 161 19 305q6 44 22.5 73t43 42 t51.5 17.5t59 4.5t59 -4.5t51.5 -17.5t43 -42t22.5 -73q18 -136 18 -305q0 -179 -18 -326q-7 -59 -36.5 -91.5t-61 -40t-78.5 -7.5t-78.5 7.5t-61 40t-36.5 91.5q-19 155 -19 326z" />
<glyph unicode="&#xa7;" horiz-adv-x="1705" d="M250 -281q0 55 40.5 117t108.5 62q36 0 80 -24t92.5 -48.5t96.5 -24.5q102 0 102 70q0 41 -38 75t-157 115q-67 45 -107.5 75t-87 72t-71.5 79t-42 85.5t-17 102.5q0 130 85.5 208t229.5 101q-80 56 -127.5 104t-76.5 112.5t-29 142.5q0 160 141 253t373 93 q207 0 344 -59q57 -25 75.5 -52.5t18.5 -74.5q0 -34 -15.5 -73.5t-51.5 -72.5t-82 -33q-34 0 -78 21.5t-92.5 43t-94.5 21.5q-98 0 -98 -73q0 -41 41.5 -76t161.5 -107q59 -36 95.5 -60t81.5 -57.5t71.5 -63t51 -67t35.5 -79.5t11 -90q0 -129 -95 -209t-251 -105 q122 -92 178.5 -171.5t56.5 -190.5q0 -158 -131 -249t-350 -91q-138 0 -246.5 24t-170.5 69.5t-62 104.5zM637 541q0 -52 31.5 -88.5t109.5 -90.5q65 9 110.5 36.5t45.5 74.5q0 53 -35 87.5t-121 88.5q-9 5 -14 8q-54 -13 -90.5 -43.5t-36.5 -72.5z" />
<glyph unicode="&#xa8;" horiz-adv-x="927" d="M27 1444q0 78 53.5 129t128.5 51q78 0 130 -46.5t52 -133.5q0 -78 -53.5 -129t-128.5 -51q-78 0 -130 47.5t-52 132.5zM537 1444q0 78 53.5 129t128.5 51q78 0 130 -46.5t52 -133.5q0 -78 -53.5 -129t-128.5 -51q-78 0 -130 47.5t-52 132.5z" />
<glyph unicode="&#xa9;" horiz-adv-x="1789" d="M205 586q0 118 29 217t81 170t119 125t146.5 86t160.5 47.5t164 15.5q200 0 353 -78t240 -229t87 -354q0 -137 -36 -249.5t-98 -188.5t-147 -127.5t-180.5 -75t-201.5 -23.5q-353 0 -535 168.5t-182 495.5zM352 580q0 -276 141.5 -403.5t434.5 -127.5q81 0 153 16.5 t139 55.5t115.5 98.5t77.5 152t29 208.5q0 262 -134.5 397t-389.5 135q-88 0 -166.5 -15.5t-153 -54t-128 -97.5t-86 -152.5t-32.5 -212.5zM520 567q0 100 31.5 177.5t87 123.5t127 69.5t156.5 23.5q136 0 219 -43q36 -19 48.5 -34.5t12.5 -41.5q0 -56 -36 -120.5t-79 -64.5 q-58 0 -143 111q-57 0 -79.5 -41t-22.5 -158q0 -95 28.5 -126t92.5 -31q47 0 101 17t75 17q32 0 49.5 -42.5t17.5 -90.5q0 -42 -35 -63q-40 -23 -107.5 -40t-143.5 -17q-88 0 -158 20t-125.5 63t-86 116.5t-30.5 174.5z" />
<glyph unicode="&#xaa;" horiz-adv-x="839" d="M31 897q0 99 76.5 152t175.5 53q91 0 149 -29q0 47 -1.5 71t-6.5 50t-16 37t-30.5 18.5t-49.5 7.5q-95 -69 -158 -69q-47 0 -79 32t-32 83q0 32 14 51.5t54 36.5q35 14 107 25t149 11q101 0 168.5 -25.5t106 -78.5t54 -123.5t15.5 -171.5q0 -71 -6 -141q20 4 33 4 q40 0 57.5 -19.5t17.5 -74.5q0 -36 -16 -60.5t-45.5 -35.5t-59 -15t-69.5 -4q-98 -3 -127 84q-97 -90 -231 -90q-50 0 -92.5 11t-79 35t-57.5 68.5t-21 106.5zM291 907q0 -73 78 -73q10 0 19 2t16.5 6t11.5 6.5t9.5 7.5t6.5 6v92q-27 19 -72 19q-28 0 -48.5 -16.5 t-20.5 -49.5z" />
<glyph unicode="&#xab;" horiz-adv-x="1511" d="M166 557q0 54 71 177.5t155.5 227t121.5 111.5q10 2 33 2q85 0 161 -60.5t76 -125.5q0 -49 -87 -153t-167 -181q77 -71 165.5 -176.5t88.5 -155.5q0 -65 -76 -126.5t-161 -61.5q-13 0 -33 4q-37 8 -121.5 111.5t-155.5 227.5t-71 179zM762 557q0 54 71 177.5t155.5 227 t121.5 111.5q10 2 33 2q85 0 161 -60.5t76 -125.5q0 -49 -87 -153t-167 -181q77 -71 165.5 -176.5t88.5 -155.5q0 -65 -76 -126.5t-161 -61.5q-13 0 -33 4q-37 8 -121.5 111.5t-155.5 227.5t-71 179z" />
<glyph unicode="&#xad;" horiz-adv-x="1073" d="M92 662q0 168 144 182q88 8 290 8q206 0 310 -8q143 -11 143 -182q0 -172 -143 -183q-104 -8 -310 -8q-202 0 -290 8q-144 14 -144 183z" />
<glyph unicode="&#xae;" horiz-adv-x="1169" d="M70 1014q0 102 31.5 185.5t82.5 137.5t119.5 90.5t139.5 52t145 15.5q223 0 363.5 -129t140.5 -352q0 -101 -27.5 -183t-74 -136.5t-110 -92t-134 -54t-148.5 -16.5q-259 0 -393.5 122t-134.5 360zM170 1008q0 -202 106.5 -294.5t325.5 -92.5q77 0 143.5 19.5t124.5 62 t91.5 120.5t33.5 185q0 195 -104 295t-297 100q-65 0 -123 -11.5t-114.5 -39.5t-97 -72t-65 -113.5t-24.5 -158.5zM346 979q0 73 6 158q6 70 29 100.5t70 40.5q49 10 135 10q248 0 248 -188q0 -121 -78 -170l55 -80q14 -20 14 -39q0 -32 -31 -53t-65 -21q-95 0 -123 162 q-37 3 -67 12v-110q0 -31 -17.5 -46.5t-75.5 -15.5q-47 0 -68 15.5t-24 62.5q-8 79 -8 162zM539 1018q21 -8 49 -8q36 0 56 19t20 54q0 45 -25.5 59.5t-89.5 14.5h-10v-139z" />
<glyph unicode="&#xaf;" horiz-adv-x="933" d="M41 1460q0 65 34 104.5t120 47.5q110 10 299 10q113 0 243 -10q87 -7 121.5 -46.5t34.5 -105.5q0 -65 -34.5 -104.5t-121.5 -46.5q-143 -11 -243 -11q-178 0 -299 11q-86 8 -120 47t-34 104z" />
<glyph unicode="&#xb0;" horiz-adv-x="851" d="M102 1229q0 69 26 123t70 86.5t97 49.5t111 17q59 0 110 -14t95 -44.5t70 -86t26 -131.5q0 -90 -45.5 -154.5t-112 -92.5t-143.5 -28q-60 0 -111.5 14t-96 44.5t-70.5 86t-26 130.5zM283 1229q0 -62 33.5 -96.5t89.5 -34.5q55 0 88.5 36.5t33.5 94.5q0 64 -33 98.5 t-89 34.5q-55 0 -89 -37.5t-34 -95.5z" />
<glyph unicode="&#xb2;" horiz-adv-x="823" d="M51 1288q0 54 60 86q40 22 112 37.5t139 15.5q62 0 120 -13.5t110 -41.5t83.5 -78.5t31.5 -117.5q0 -98 -80 -175t-195 -106l8 -8q140 39 232 39q90 0 90 -131q0 -96 -90 -107q-94 -12 -279 -12q-172 0 -256 12q-46 7 -65 41t-19 78q0 97 72 115q115 31 188.5 92.5 t73.5 128.5q0 39 -25.5 64.5t-62.5 25.5q-15 0 -38.5 -18.5t-52.5 -37t-56 -18.5q-41 0 -71 44t-30 85z" />
<glyph unicode="&#xb4;" horiz-adv-x="516" d="M20 1321q0 34 23 72q21 34 48 72t68.5 90.5t85.5 86t77 33.5q72 0 123 -59t51 -113q0 -28 -14 -52.5t-50 -64.5q-81 -86 -166 -141q-3 -2 -12.5 -8t-12.5 -8t-11.5 -7t-12 -7t-11 -5.5t-12 -5t-11 -3.5t-13 -2.5t-12.5 -0.5q-44 0 -91 40t-47 83z" />
<glyph unicode="&#xb6;" horiz-adv-x="1599" d="M113 719q0 253 177.5 372t538.5 119q295 0 467 -24q93 -13 126.5 -52.5t33.5 -109.5q0 -80 -40.5 -119.5t-145.5 -42.5q6 -120 6 -311q0 -431 -23 -717q-6 -67 -37 -94t-92 -27q-62 0 -93.5 36.5t-35.5 129.5v985h-137v-1028q0 -58 -13 -96t-39 -56.5t-53.5 -25 t-66.5 -6.5q-140 0 -160 160q-18 155 -18 444v31h-4q-68 0 -134 24t-125 73t-95.5 135.5t-36.5 199.5z" />
<glyph unicode="&#xb7;" horiz-adv-x="1044" d="M307 647q0 92 63 152.5t152 60.5q92 0 153.5 -56t61.5 -157q0 -93 -62.5 -153t-152.5 -60q-92 0 -153.5 56t-61.5 157z" />
<glyph unicode="&#xb8;" horiz-adv-x="575" d="M86 -379q0 38 19.5 59t41.5 21q15 0 45 -13.5t52 -13.5q53 0 53 31q0 20 -25.5 32t-85.5 25q-32 7 -47.5 18t-15.5 36q0 84 102 84q42 0 78.5 -4t78.5 -16.5t71.5 -33.5t49 -57.5t19.5 -85.5q0 -83 -74.5 -132.5t-168.5 -49.5q-89 0 -144 22q-49 20 -49 78z" />
<glyph unicode="&#xb9;" horiz-adv-x="616" d="M20 1282q0 50 78 86q37 19 103.5 38t132.5 19q63 0 109.5 -24t52.5 -78q12 -105 16.5 -253.5t-4.5 -287.5q-5 -58 -37 -84t-104 -26q-159 0 -156 131v358q-42 -28 -78 -28q-44 0 -78.5 45.5t-34.5 103.5z" />
<glyph unicode="&#xba;" horiz-adv-x="903" d="M66 1049q0 189 106.5 283.5t280.5 94.5q84 0 152.5 -22.5t120.5 -67t81 -118t29 -170.5q0 -184 -103 -278.5t-280 -94.5q-179 0 -283 94.5t-104 278.5zM350 1049q0 -102 24.5 -147.5t78.5 -45.5q53 0 77.5 45t24.5 148q0 198 -102 198q-103 0 -103 -198z" />
<glyph unicode="&#xbb;" horiz-adv-x="1511" d="M203 223q0 50 90 158t164 174q-77 71 -165.5 177.5t-88.5 156.5q0 65 75.5 125.5t159.5 60.5q23 0 35 -2q36 -8 120.5 -111.5t156 -227t71.5 -177.5q0 -55 -71 -179t-155.5 -227.5t-121.5 -111.5q-24 -4 -35 -4q-84 0 -159.5 61.5t-75.5 126.5zM799 223q0 50 90 158 t164 174q-77 71 -165.5 177.5t-88.5 156.5q0 65 75.5 125.5t159.5 60.5q23 0 35 -2q36 -8 120.5 -111.5t156 -227t71.5 -177.5q0 -55 -71 -179t-155.5 -227.5t-121.5 -111.5q-24 -4 -35 -4q-84 0 -159.5 61.5t-75.5 126.5z" />
<glyph unicode="&#xbf;" horiz-adv-x="1144" d="M82 90q0 -103 31 -183.5t82 -131.5t122 -84t145.5 -46.5t158.5 -13.5q247 0 432 84q86 38 86 138q0 64 -44.5 131t-109.5 67q-42 0 -90 -28t-92.5 -56t-79.5 -28q-72 0 -113 48t-41 122q0 37 14 67t44 54t59 40t76 37q68 30 89 59t21 74q0 72 -38.5 123t-98.5 51 q-42 0 -105 -16.5t-136.5 -46t-146 -76.5t-132 -103t-96.5 -130t-37 -152zM453 883q0 87 58 142.5t142 55.5q86 0 143.5 -52t57.5 -146q0 -86 -59 -142.5t-142 -56.5q-86 0 -143 52.5t-57 146.5z" />
<glyph unicode="&#xc0;" d="M18 133q0 124 72.5 363.5t163.5 455.5t156 322q40 67 68 99.5t79 52.5t131 20q96 0 165.5 -50.5t147.5 -195.5q129 -240 230.5 -590t101.5 -479q0 -133 -192 -133q-60 0 -100.5 8.5t-67 22.5t-44.5 45.5t-28.5 64.5t-23.5 94l-15 64h-409l-15 -68q-17 -76 -37 -120.5 t-54 -69.5t-75.5 -33t-111.5 -8q-142 0 -142 135zM434 1815q0 54 51 113t123 59q33 0 77 -33.5t85.5 -86.5t68 -90.5t48.5 -72.5q22 -36 22 -72q0 -43 -46.5 -83t-90.5 -40q-6 0 -12.5 0.5t-13 2.5t-11 3.5t-12 5t-11 5.5t-12 7t-11.5 7t-12.5 8t-12.5 8q-83 53 -166 142 q-36 40 -50 64.5t-14 52.5zM528 592q86 4 138 4q43 0 125 -4q-56 216 -136 442q-78 -258 -127 -442z" />
<glyph unicode="&#xc1;" d="M18 133q0 124 72.5 363.5t163.5 455.5t156 322q40 67 68 99.5t79 52.5t131 20q96 0 165.5 -50.5t147.5 -195.5q129 -240 230.5 -590t101.5 -479q0 -133 -192 -133q-60 0 -100.5 8.5t-67 22.5t-44.5 45.5t-28.5 64.5t-23.5 94l-15 64h-409l-15 -68q-17 -76 -37 -120.5 t-54 -69.5t-75.5 -33t-111.5 -8q-142 0 -142 135zM487 1630q0 34 23 72q22 35 48 72.5t68 90.5t85.5 86.5t76.5 33.5q72 0 123.5 -59.5t51.5 -113.5q0 -28 -13.5 -52t-50.5 -64q-83 -89 -166 -142q-3 -2 -12.5 -8t-12.5 -8t-11.5 -7t-12 -7t-11 -5.5t-12 -5t-11 -3.5 t-13 -2.5t-12.5 -0.5q-44 0 -91 40t-47 83zM528 592q86 4 138 4q43 0 125 -4q-56 216 -136 442q-78 -258 -127 -442z" />
<glyph unicode="&#xc2;" d="M18 133q0 124 72.5 363.5t163.5 455.5t156 322q40 67 68 99.5t79 52.5t131 20q96 0 165.5 -50.5t147.5 -195.5q129 -240 230.5 -590t101.5 -479q0 -133 -192 -133q-60 0 -100.5 8.5t-67 22.5t-44.5 45.5t-28.5 64.5t-23.5 94l-15 64h-409l-15 -68q-17 -76 -37 -120.5 t-54 -69.5t-75.5 -33t-111.5 -8q-142 0 -142 135zM254 1681q0 49 84.5 136t216.5 163q53 29 117 29q63 0 116 -29q132 -76 217 -163.5t85 -135.5q0 -64 -57.5 -107.5t-106.5 -43.5q-28 0 -45 6.5t-45 30.5q-42 34 -164 178q-122 -144 -164 -178q-28 -24 -45 -30.5t-45 -6.5 q-49 0 -106.5 43.5t-57.5 107.5zM528 592q86 4 138 4q43 0 125 -4q-56 216 -136 442q-78 -258 -127 -442z" />
<glyph unicode="&#xc3;" d="M18 133q0 124 72.5 363.5t163.5 455.5t156 322q40 67 68 99.5t79 52.5t131 20q96 0 165.5 -50.5t147.5 -195.5q129 -240 230.5 -590t101.5 -479q0 -133 -192 -133q-60 0 -100.5 8.5t-67 22.5t-44.5 45.5t-28.5 64.5t-23.5 94l-15 64h-409l-15 -68q-17 -76 -37 -120.5 t-54 -69.5t-75.5 -33t-111.5 -8q-142 0 -142 135zM244 1698q0 38 24 76q103 153 264 153q64 0 122.5 -20t109 -48.5t65.5 -33.5q43 48 72.5 69t61.5 21q55 0 97 -44.5t42 -105.5q0 -31 -19 -61q-93 -150 -270 -150q-64 0 -123.5 19.5t-111.5 47t-68 32.5q-67 -90 -135 -90 q-52 0 -91.5 39.5t-39.5 95.5zM528 592q86 4 138 4q43 0 125 -4q-56 216 -136 442q-78 -258 -127 -442z" />
<glyph unicode="&#xc4;" d="M18 133q0 124 72.5 363.5t163.5 455.5t156 322q40 67 68 99.5t79 52.5t131 20q96 0 165.5 -50.5t147.5 -195.5q129 -240 230.5 -590t101.5 -479q0 -133 -192 -133q-60 0 -100.5 8.5t-67 22.5t-44.5 45.5t-28.5 64.5t-23.5 94l-15 64h-409l-15 -68q-17 -76 -37 -120.5 t-54 -69.5t-75.5 -33t-111.5 -8q-142 0 -142 135zM201 1753q0 85 57.5 140t138.5 55q84 0 140.5 -50.5t56.5 -144.5q0 -84 -58 -139t-139 -55q-84 0 -140 50.5t-56 143.5zM528 592q86 4 138 4q43 0 125 -4q-56 216 -136 442q-78 -258 -127 -442zM752 1753q0 85 57.5 140 t138.5 55q84 0 140.5 -50.5t56.5 -144.5q0 -84 -58 -139t-139 -55q-84 0 -140 50.5t-56 143.5z" />
<glyph unicode="&#xc5;" d="M18 133q0 124 72.5 363.5t163.5 455.5t156 322q40 67 68 99.5t79 52.5t131 20q96 0 165.5 -50.5t147.5 -195.5q129 -240 230.5 -590t101.5 -479q0 -133 -192 -133q-60 0 -100.5 8.5t-67 22.5t-44.5 45.5t-28.5 64.5t-23.5 94l-15 64h-409l-15 -68q-17 -76 -37 -120.5 t-54 -69.5t-75.5 -33t-111.5 -8q-142 0 -142 135zM416 1745q0 58 22 103.5t58.5 73t81.5 42t94 14.5q51 0 94.5 -12t81 -37.5t59 -72.5t21.5 -111q0 -114 -75.5 -174t-180.5 -60q-51 0 -94.5 12t-81 38t-59 73t-21.5 111zM528 592q86 4 138 4q43 0 125 -4q-56 216 -136 442 q-78 -258 -127 -442zM594 1745q0 -39 21 -61.5t57 -22.5q35 0 56.5 23.5t21.5 60.5q0 39 -21 61.5t-57 22.5q-35 0 -56.5 -23.5t-21.5 -60.5z" />
<glyph unicode="&#xc6;" horiz-adv-x="1886" d="M100 154q15 176 80 394t156.5 404.5t179.5 274.5q45 45 91.5 76t121.5 61t188 45.5t263 15.5q31 0 116.5 1t135.5 1q104 0 268 -8q79 -6 106 -40t27 -109q0 -29 -4 -53.5t-13.5 -43t-19 -33t-27.5 -25t-31.5 -18t-38.5 -12t-41 -7t-47 -4t-48 -1.5h-52q-30 0 -213 6v-223 q148 12 181 12q59 0 94.5 -4.5t66 -19t43.5 -44.5t13 -79q0 -54 -15 -87t-48 -48.5t-68.5 -20t-94.5 -4.5q-56 0 -172 14v-260h27q124 0 256.5 19.5t159.5 19.5q46 0 75.5 -28.5t39.5 -64.5t10 -79q0 -132 -84 -159q-36 -12 -114.5 -17.5t-140.5 -6.5t-181 -1 q-238 0 -349 18q-36 6 -61 26t-40.5 57t-23.5 83t-14 115h-323q-3 -12 -10.5 -34.5t-10.5 -33.5q-29 -99 -64.5 -151.5t-78 -70t-111.5 -17.5q-79 0 -123 38.5t-37 125.5zM625 596h43q101 0 174 -8q-2 51 -2 153q0 166 20 342q-37 -8 -61 -40t-47 -87q-71 -180 -127 -360z " />
<glyph unicode="&#xc7;" horiz-adv-x="1331" d="M66 711q0 150 41 274t109 206.5t157.5 139.5t184 82t192.5 25q119 0 210 -24.5t185 -74.5q58 -32 85 -63.5t27 -81.5q0 -66 -46.5 -138.5t-98.5 -72.5q-38 0 -85 22t-85 48.5t-87 48.5t-91 22q-209 0 -209 -413q0 -213 52 -308.5t165 -95.5q65 0 120 16t91 38.5t65 45 t54.5 38.5t46.5 16q41 0 73.5 -29t48.5 -70t24 -75.5t8 -55.5q0 -62 -68 -116q-88 -67 -220 -102.5t-265 -35.5q-101 0 -192.5 20t-183.5 72t-158.5 132.5t-108 211.5t-41.5 298zM514 -379q0 38 19.5 59t41.5 21q15 0 45 -13.5t52 -13.5q53 0 53 31q0 20 -25.5 32t-85.5 25 q-32 7 -47.5 18t-15.5 36q0 84 102 84q42 0 78.5 -4t78.5 -16.5t71.5 -33.5t49 -57.5t19.5 -85.5q0 -83 -74.5 -132.5t-168.5 -49.5q-89 0 -144 22q-49 20 -49 78z" />
<glyph unicode="&#xc8;" horiz-adv-x="1144" d="M98 741q0 175 23 369q7 60 18.5 104.5t26 76t36 53t45 34.5t56 21t65 12.5t76.5 8.5q9 1 13 1q68 6 233 6q104 0 268 -8q79 -6 106.5 -40t27.5 -109q0 -29 -4 -53.5t-13.5 -43t-19 -33t-27.5 -25t-31.5 -18t-38.5 -12t-41 -7t-47 -4t-48 -1.5h-52q-36 0 -213 6v-221 q123 10 180 10q59 0 94.5 -4.5t66 -19t43.5 -44.5t13 -79q0 -43 -11 -73t-28 -47t-48 -26t-61 -11.5t-77 -2.5q-62 0 -172 10v-254q93 6 245 21.5t197 15.5q46 0 75.5 -28.5t39.5 -64.5t10 -79q0 -132 -84 -159q-97 -31 -436 -31q-252 0 -348 24q-71 18 -98.5 83t-42.5 212 q-17 168 -17 430zM375 1815q0 54 51 113t123 59q33 0 76.5 -33.5t85.5 -86.5t68 -90.5t48 -72.5q23 -38 23 -72q0 -43 -46.5 -83t-90.5 -40q-6 0 -12 1t-10.5 1.5t-11 3t-10 3.5t-11 5t-10.5 5.5t-11 6.5t-10 6.5t-11.5 7.5t-11.5 7q-83 53 -166 142q-36 39 -49.5 63.5 t-13.5 53.5z" />
<glyph unicode="&#xc9;" horiz-adv-x="1144" d="M98 741q0 175 23 369q7 60 18.5 104.5t26 76t36 53t45 34.5t56 21t65 12.5t76.5 8.5q9 1 13 1q68 6 233 6q104 0 268 -8q79 -6 106.5 -40t27.5 -109q0 -29 -4 -53.5t-13.5 -43t-19 -33t-27.5 -25t-31.5 -18t-38.5 -12t-41 -7t-47 -4t-48 -1.5h-52q-36 0 -213 6v-221 q123 10 180 10q59 0 94.5 -4.5t66 -19t43.5 -44.5t13 -79q0 -43 -11 -73t-28 -47t-48 -26t-61 -11.5t-77 -2.5q-62 0 -172 10v-254q93 6 245 21.5t197 15.5q46 0 75.5 -28.5t39.5 -64.5t10 -79q0 -132 -84 -159q-97 -31 -436 -31q-252 0 -348 24q-71 18 -98.5 83t-42.5 212 q-17 168 -17 430zM428 1630q0 34 23 72q22 35 48 72.5t68 90.5t85.5 86.5t76.5 33.5q72 0 123 -59.5t51 -113.5q0 -29 -13.5 -53t-49.5 -63q-83 -89 -166 -142q-60 -38 -85 -44q-12 -3 -24 -3q-44 0 -90.5 40t-46.5 83z" />
<glyph unicode="&#xca;" horiz-adv-x="1144" d="M98 741q0 175 23 369q7 60 18.5 104.5t26 76t36 53t45 34.5t56 21t65 12.5t76.5 8.5q9 1 13 1q68 6 233 6q104 0 268 -8q79 -6 106.5 -40t27.5 -109q0 -29 -4 -53.5t-13.5 -43t-19 -33t-27.5 -25t-31.5 -18t-38.5 -12t-41 -7t-47 -4t-48 -1.5h-52q-36 0 -213 6v-221 q123 10 180 10q59 0 94.5 -4.5t66 -19t43.5 -44.5t13 -79q0 -43 -11 -73t-28 -47t-48 -26t-61 -11.5t-77 -2.5q-62 0 -172 10v-254q93 6 245 21.5t197 15.5q46 0 75.5 -28.5t39.5 -64.5t10 -79q0 -132 -84 -159q-97 -31 -436 -31q-252 0 -348 24q-71 18 -98.5 83t-42.5 212 q-17 168 -17 430zM195 1681q0 49 84.5 136t216.5 163q53 29 116 29q64 0 117 -29q132 -76 216.5 -163t84.5 -136q0 -64 -57.5 -107.5t-106.5 -43.5q-28 0 -45 6.5t-45 30.5q-42 34 -164 178q-124 -146 -163 -178q-28 -24 -45.5 -30.5t-45.5 -6.5q-49 0 -106 43.5t-57 107.5z " />
<glyph unicode="&#xcb;" horiz-adv-x="1144" d="M98 741q0 175 23 369q7 60 18.5 104.5t26 76t36 53t45 34.5t56 21t65 12.5t76.5 8.5q9 1 13 1q68 6 233 6q104 0 268 -8q79 -6 106.5 -40t27.5 -109q0 -29 -4 -53.5t-13.5 -43t-19 -33t-27.5 -25t-31.5 -18t-38.5 -12t-41 -7t-47 -4t-48 -1.5h-52q-36 0 -213 6v-221 q123 10 180 10q59 0 94.5 -4.5t66 -19t43.5 -44.5t13 -79q0 -43 -11 -73t-28 -47t-48 -26t-61 -11.5t-77 -2.5q-62 0 -172 10v-254q93 6 245 21.5t197 15.5q46 0 75.5 -28.5t39.5 -64.5t10 -79q0 -132 -84 -159q-97 -31 -436 -31q-252 0 -348 24q-71 18 -98.5 83t-42.5 212 q-17 168 -17 430zM141 1753q0 85 58 140t139 55q84 0 140.5 -50.5t56.5 -144.5q0 -84 -58 -139t-139 -55q-84 0 -140.5 50.5t-56.5 143.5zM692 1753q0 85 58 140t139 55q84 0 140 -50.5t56 -144.5q0 -85 -57.5 -139.5t-138.5 -54.5q-84 0 -140.5 50.5t-56.5 143.5z" />
<glyph unicode="&#xcc;" horiz-adv-x="679" d="M102 1815q0 54 51 113t123 59q33 0 77 -33.5t85.5 -86.5t68 -90.5t48.5 -72.5q23 -38 23 -72q0 -43 -47 -83t-91 -40q-6 0 -12.5 0.5t-13 2.5t-11 3.5t-12 5t-11 5.5t-12 7t-11.5 7t-12.5 8t-12.5 8q-83 53 -166 142q-36 40 -50 64.5t-14 52.5zM111 717q0 373 18 561 q9 84 55.5 116.5t155.5 32.5q115 0 159 -34t52 -115q18 -188 18 -561q0 -356 -18 -567q-7 -84 -54 -117t-157 -33q-115 0 -160 34.5t-51 115.5q-18 203 -18 567z" />
<glyph unicode="&#xcd;" horiz-adv-x="679" d="M111 717q0 373 18 561q9 84 55.5 116.5t155.5 32.5q115 0 159 -34t52 -115q18 -188 18 -561q0 -356 -18 -567q-7 -84 -54 -117t-157 -33q-115 0 -160 34.5t-51 115.5q-18 203 -18 567zM156 1630q0 36 22 72q22 35 48.5 72.5t68 90.5t85.5 86.5t77 33.5q72 0 123 -59.5 t51 -113.5q0 -28 -13.5 -52t-50.5 -64q-83 -89 -166 -142q-3 -2 -12.5 -8t-12.5 -8t-11.5 -7t-12 -7t-11 -5.5t-12 -5t-11 -3.5t-13 -2.5t-12.5 -0.5q-44 0 -90.5 40t-46.5 83z" />
<glyph unicode="&#xce;" horiz-adv-x="679" d="M-78 1681q0 49 84.5 136t216.5 163q53 29 117 29t117 -29q132 -76 216.5 -163t84.5 -136q0 -64 -57.5 -107.5t-106.5 -43.5q-28 0 -45 6.5t-45 30.5q-42 34 -164 178q-122 -144 -164 -178q-28 -24 -45 -30.5t-45 -6.5q-49 0 -106.5 43.5t-57.5 107.5zM111 717 q0 373 18 561q9 84 55.5 116.5t155.5 32.5q115 0 159 -34t52 -115q18 -188 18 -561q0 -356 -18 -567q-7 -84 -54 -117t-157 -33q-115 0 -160 34.5t-51 115.5q-18 203 -18 567z" />
<glyph unicode="&#xcf;" horiz-adv-x="679" d="M-133 1753q0 85 58 140t141 55q84 0 140 -50.5t56 -144.5q0 -85 -57.5 -139.5t-138.5 -54.5q-86 0 -142.5 50.5t-56.5 143.5zM111 717q0 373 18 561q9 84 55.5 116.5t155.5 32.5q115 0 159 -34t52 -115q18 -188 18 -561q0 -356 -18 -567q-7 -84 -54 -117t-157 -33 q-115 0 -160 34.5t-51 115.5q-18 203 -18 567zM420 1753q0 85 57.5 140t138.5 55q84 0 140.5 -50.5t56.5 -144.5q0 -84 -58 -139t-139 -55q-84 0 -140 50.5t-56 143.5z" />
<glyph unicode="&#xd1;" horiz-adv-x="1525" d="M98 555q0 324 29 604q13 121 81.5 194.5t197.5 73.5q96 0 168 -30.5t142 -109.5t133 -215.5t132 -348.5q48 -141 82 -307h14q-2 131 -18.5 449.5t-16.5 387.5q0 108 44 144.5t155 36.5q152 0 160 -152q8 -196 8 -299q0 -438 -49 -747q-21 -126 -88.5 -181t-186.5 -55 q-95 0 -157.5 35t-130.5 145q-39 63 -76.5 148t-109.5 264q-4 10 -6.5 16t-6 15t-6.5 16q-71 176 -100 328h-21v-787q0 -30 -0.5 -44t-3.5 -37.5t-8.5 -34.5t-17 -26t-28 -21.5t-42 -11.5t-58.5 -5q-41 0 -69.5 4t-49 15t-32.5 23t-21 37t-13.5 47t-10.5 62q-19 142 -19 367 zM336 1698q0 38 24 76q103 153 265 153q64 0 122.5 -20t109 -48.5t65.5 -33.5q43 48 72 69t61 21q55 0 97 -44.5t42 -105.5q0 -32 -18 -61q-93 -150 -271 -150q-64 0 -123.5 19.5t-111.5 47t-68 32.5q-67 -90 -135 -90q-52 0 -91.5 39.5t-39.5 95.5z" />
<glyph unicode="&#xd2;" horiz-adv-x="1501" d="M66 711q0 150 41 273.5t108.5 206t157 139t183.5 81.5t192 25q102 0 194 -19t184.5 -70t159 -130t108.5 -209t42 -297q0 -153 -41.5 -279t-109.5 -209t-158.5 -139.5t-185 -81.5t-193.5 -25q-101 0 -192.5 20t-183 72t-157.5 132.5t-107.5 211.5t-41.5 298zM514 1815 q0 54 51 113t123 59q33 0 77 -33.5t85.5 -86.5t68 -90.5t48.5 -72.5q22 -36 22 -72q0 -43 -46.5 -83t-90.5 -40q-6 0 -12 1t-10.5 1.5t-11 3t-10 3.5t-11 5t-10.5 5.5t-11 6.5t-10 6.5t-11.5 7.5t-11.5 7q-80 52 -165 142q-36 40 -50 64.5t-14 52.5zM543 711 q0 -153 26 -244.5t69.5 -126.5t111.5 -35q40 0 71.5 11.5t59 40t45 74.5t27.5 116.5t10 163.5q0 119 -15 201t-44.5 126.5t-67 63t-88.5 18.5t-87 -18.5t-63.5 -63.5t-41 -126t-13.5 -201z" />
<glyph unicode="&#xd3;" horiz-adv-x="1501" d="M66 711q0 150 41 273.5t108.5 206t157 139t183.5 81.5t192 25q102 0 194 -19t184.5 -70t159 -130t108.5 -209t42 -297q0 -153 -41.5 -279t-109.5 -209t-158.5 -139.5t-185 -81.5t-193.5 -25q-101 0 -192.5 20t-183 72t-157.5 132.5t-107.5 211.5t-41.5 298zM543 711 q0 -153 26 -244.5t69.5 -126.5t111.5 -35q40 0 71.5 11.5t59 40t45 74.5t27.5 116.5t10 163.5q0 119 -15 201t-44.5 126.5t-67 63t-88.5 18.5t-87 -18.5t-63.5 -63.5t-41 -126t-13.5 -201zM567 1630q0 34 23 72q22 35 48 72.5t68 90.5t85.5 86.5t76.5 33.5q72 0 123 -59.5 t51 -113.5q0 -29 -13.5 -53t-49.5 -63q-83 -89 -166 -142q-3 -2 -12.5 -8t-12.5 -8t-11.5 -7t-12 -7t-11 -5.5t-12 -5t-11 -3.5t-13 -2.5t-12.5 -0.5q-44 0 -91 40t-47 83z" />
<glyph unicode="&#xd4;" horiz-adv-x="1501" d="M66 711q0 150 41 273.5t108.5 206t157 139t183.5 81.5t192 25q102 0 194 -19t184.5 -70t159 -130t108.5 -209t42 -297q0 -153 -41.5 -279t-109.5 -209t-158.5 -139.5t-185 -81.5t-193.5 -25q-101 0 -192.5 20t-183 72t-157.5 132.5t-107.5 211.5t-41.5 298zM334 1681 q0 49 84.5 136t216.5 163q53 29 117 29q63 0 116 -29q132 -76 216.5 -163t84.5 -136q0 -64 -57 -107.5t-106 -43.5q-28 0 -45.5 6.5t-45.5 30.5q-39 32 -163 178q-122 -144 -164 -178q-28 -24 -45 -30.5t-45 -6.5q-49 0 -106.5 43.5t-57.5 107.5zM543 711q0 -153 26 -244.5 t69.5 -126.5t111.5 -35q40 0 71.5 11.5t59 40t45 74.5t27.5 116.5t10 163.5q0 119 -15 201t-44.5 126.5t-67 63t-88.5 18.5t-87 -18.5t-63.5 -63.5t-41 -126t-13.5 -201z" />
<glyph unicode="&#xd5;" horiz-adv-x="1501" d="M66 711q0 150 41 273.5t108.5 206t157 139t183.5 81.5t192 25q102 0 194 -19t184.5 -70t159 -130t108.5 -209t42 -297q0 -153 -41.5 -279t-109.5 -209t-158.5 -139.5t-185 -81.5t-193.5 -25q-101 0 -192.5 20t-183 72t-157.5 132.5t-107.5 211.5t-41.5 298zM324 1698 q0 38 24 76q103 153 264 153q64 0 122.5 -20t109 -48.5t65.5 -33.5q43 48 72 69t61 21q55 0 97.5 -44.5t42.5 -105.5q0 -31 -19 -61q-93 -150 -270 -150q-64 0 -123.5 19.5t-111.5 47t-68 32.5q-67 -90 -135 -90q-52 0 -91.5 39.5t-39.5 95.5zM543 711q0 -153 26 -244.5 t69.5 -126.5t111.5 -35q40 0 71.5 11.5t59 40t45 74.5t27.5 116.5t10 163.5q0 119 -15 201t-44.5 126.5t-67 63t-88.5 18.5t-87 -18.5t-63.5 -63.5t-41 -126t-13.5 -201z" />
<glyph unicode="&#xd6;" horiz-adv-x="1501" d="M66 711q0 150 41 273.5t108.5 206t157 139t183.5 81.5t192 25q102 0 194 -19t184.5 -70t159 -130t108.5 -209t42 -297q0 -153 -41.5 -279t-109.5 -209t-158.5 -139.5t-185 -81.5t-193.5 -25q-101 0 -192.5 20t-183 72t-157.5 132.5t-107.5 211.5t-41.5 298zM281 1753 q0 85 57.5 140t138.5 55q84 0 140.5 -50.5t56.5 -144.5q0 -84 -58 -139t-139 -55q-84 0 -140 50.5t-56 143.5zM543 711q0 -153 26 -244.5t69.5 -126.5t111.5 -35q40 0 71.5 11.5t59 40t45 74.5t27.5 116.5t10 163.5q0 119 -15 201t-44.5 126.5t-67 63t-88.5 18.5t-87 -18.5 t-63.5 -63.5t-41 -126t-13.5 -201zM831 1753q0 85 58 140t139 55q84 0 140.5 -50.5t56.5 -144.5q0 -84 -58 -139t-139 -55q-84 0 -140.5 50.5t-56.5 143.5z" />
<glyph unicode="&#xd7;" d="M206.5 388.5q0.5 62.5 76.5 137.5q39 39 172 127q-118 88 -170 140q-50 51 -65.5 96.5t0 85.5t59.5 84q46 47 87.5 63.5t88 2t96.5 -65.5q54 -54 139 -172q80 123 127 170q75 75 136 76.5t124 -64.5q69 -65 68 -127t-76 -137q-42 -42 -174 -127q115 -83 180 -148 q50 -51 65.5 -97t-0.5 -86.5t-61 -84.5q-46 -46 -87 -62.5t-87 -1.5t-96 66q-48 48 -147 180q-80 -123 -127 -170q-77 -75 -137.5 -77t-123.5 65q-68 64 -67.5 126.5z" />
<glyph unicode="&#xd8;" horiz-adv-x="1501" d="M66 711q0 150 41 273.5t108.5 206t157 139t183.5 81.5t192 25q93 0 174 -17q40 86 92.5 138.5t113.5 52.5q99 0 171.5 -62.5t72.5 -136.5q0 -70 -82 -201q146 -184 146 -499q0 -153 -41.5 -279t-109.5 -209t-158.5 -139.5t-185 -81.5t-193.5 -25q-96 0 -195 21 q-83 -158 -191 -158q-98 0 -170.5 63t-72.5 136q0 65 76 190q-129 179 -129 482zM543 711q0 -153 26 -244.5t69.5 -126.5t111.5 -35q40 0 71.5 11.5t59 40t45 74.5t27.5 116.5t10 163.5q0 119 -15 201t-44.5 126.5t-67 63t-88.5 18.5t-87 -18.5t-63.5 -63.5t-41 -126 t-13.5 -201z" />
<glyph unicode="&#xd9;" horiz-adv-x="1419" d="M84 748q0 268 18 452q7 77 19.5 120.5t41 68t66 31.5t105.5 7q35 0 55.5 -1t48 -6.5t43 -16.5t33 -31t26.5 -49.5t15 -73t6 -100.5v-492q0 -66 3.5 -115t14.5 -98t30 -80t51.5 -50t76.5 -19q56 0 93 32.5t54.5 94t24 124t6.5 146.5q0 122 -7 306t-7 268q0 38 9 65.5 t29.5 45t42 28t58.5 15t66.5 6t77.5 1.5q61 0 98 -30.5t45 -75.5q19 -108 19 -449q0 -94 -4.5 -171t-15 -162t-31.5 -152.5t-52 -133.5t-77 -114.5t-106 -86t-141.5 -56.5t-179.5 -19q-167 0 -287 42t-203.5 133t-124 239t-40.5 357zM483 1815q0 54 51 113t123 59 q33 0 77 -33.5t85.5 -86.5t68 -90.5t48.5 -72.5q22 -36 22 -72q0 -43 -46.5 -83t-90.5 -40q-6 0 -12.5 0.5t-13 2.5t-11 3.5t-12 5t-11 5.5t-12 7t-11.5 7t-12.5 8t-12.5 8q-83 53 -166 142q-36 40 -50 64.5t-14 52.5z" />
<glyph unicode="&#xda;" horiz-adv-x="1419" d="M84 748q0 268 18 452q7 77 19.5 120.5t41 68t66 31.5t105.5 7q35 0 55.5 -1t48 -6.5t43 -16.5t33 -31t26.5 -49.5t15 -73t6 -100.5v-492q0 -66 3.5 -115t14.5 -98t30 -80t51.5 -50t76.5 -19q56 0 93 32.5t54.5 94t24 124t6.5 146.5q0 122 -7 306t-7 268q0 38 9 65.5 t29.5 45t42 28t58.5 15t66.5 6t77.5 1.5q61 0 98 -30.5t45 -75.5q19 -108 19 -449q0 -94 -4.5 -171t-15 -162t-31.5 -152.5t-52 -133.5t-77 -114.5t-106 -86t-141.5 -56.5t-179.5 -19q-167 0 -287 42t-203.5 133t-124 239t-40.5 357zM537 1630q0 36 22 72q22 35 48.5 72.5 t68 90.5t85.5 86.5t77 33.5q72 0 123 -59.5t51 -113.5q0 -28 -13.5 -52t-50.5 -64q-83 -89 -166 -142q-3 -2 -12.5 -8t-12.5 -8t-11.5 -7t-12 -7t-11 -5.5t-12 -5t-11 -3.5t-13 -2.5t-12.5 -0.5q-44 0 -90.5 40t-46.5 83z" />
<glyph unicode="&#xdb;" horiz-adv-x="1419" d="M84 748q0 -209 40.5 -357t124 -239t203.5 -133t287 -42q98 0 179.5 19t141.5 56.5t106 86t77 114.5t52 133.5t31.5 152.5t15 162t4.5 171q0 341 -19 449q-8 45 -45 75.5t-98 30.5q-48 0 -77.5 -1.5t-66.5 -6t-58.5 -15t-42 -28t-29.5 -45t-9 -65.5q0 -84 7 -268t7 -306 q0 -84 -6.5 -146.5t-24 -124t-54.5 -94t-93 -32.5q-44 0 -76.5 19t-51.5 50t-30 80t-14.5 98t-3.5 115v492q0 57 -6 100.5t-15 73t-26.5 49.5t-33 31t-43 16.5t-48 6.5t-55.5 1q-68 0 -105.5 -7t-66 -31.5t-41 -68t-19.5 -120.5q-18 -184 -18 -452zM297 1681q0 49 84.5 136 t216.5 163q53 29 117 29q63 0 116 -29q132 -76 217 -163.5t85 -135.5q0 -64 -57.5 -107.5t-106.5 -43.5q-28 0 -45 6.5t-45 30.5q-42 34 -164 178q-122 -144 -164 -178q-28 -24 -45 -30.5t-45 -6.5q-49 0 -106.5 43.5t-57.5 107.5z" />
<glyph unicode="&#xdc;" horiz-adv-x="1419" d="M84 748q0 268 18 452q7 77 19.5 120.5t41 68t66 31.5t105.5 7q35 0 55.5 -1t48 -6.5t43 -16.5t33 -31t26.5 -49.5t15 -73t6 -100.5v-492q0 -66 3.5 -115t14.5 -98t30 -80t51.5 -50t76.5 -19q56 0 93 32.5t54.5 94t24 124t6.5 146.5q0 122 -7 306t-7 268q0 38 9 65.5 t29.5 45t42 28t58.5 15t66.5 6t77.5 1.5q61 0 98 -30.5t45 -75.5q19 -108 19 -449q0 -94 -4.5 -171t-15 -162t-31.5 -152.5t-52 -133.5t-77 -114.5t-106 -86t-141.5 -56.5t-179.5 -19q-167 0 -287 42t-203.5 133t-124 239t-40.5 357zM250 1753q0 85 57.5 140t138.5 55 q84 0 140.5 -50.5t56.5 -144.5q0 -84 -58 -139t-139 -55q-84 0 -140 50.5t-56 143.5zM801 1753q0 85 57.5 140t138.5 55q84 0 140.5 -50.5t56.5 -144.5q0 -84 -58 -139t-139 -55q-84 0 -140 50.5t-56 143.5z" />
<glyph unicode="&#xdd;" horiz-adv-x="1202" d="M2 1290q0 137 170 137q156 0 224 -42.5t98 -163.5q28 -112 58.5 -227t47.5 -174l16 -58h23q28 58 53 122.5t44.5 131.5t31 110.5t26.5 106.5t17 72q17 67 64 96t143 29q94 0 139 -38t45 -124q0 -91 -51.5 -245t-148.5 -329.5t-209 -296.5q0 -14 6 -82.5t6 -119.5 q0 -54 -11.5 -91t-28.5 -57t-47 -31t-56 -13.5t-68 -2.5q-108 0 -161.5 44t-53.5 144q0 51 5 133.5t5 98.5q-141 209 -264 472t-123 398zM442 1630q0 34 23 72q22 35 48 72.5t68 90.5t85.5 86.5t76.5 33.5q72 0 123.5 -59.5t51.5 -113.5q0 -28 -13.5 -52t-50.5 -64 q-83 -89 -166 -142q-3 -2 -12.5 -8t-12.5 -8t-11.5 -7t-12 -7t-11 -5.5t-12 -5t-11 -3.5t-13 -2.5t-12.5 -0.5q-44 0 -91 40t-47 83z" />
<glyph unicode="&#xde;" horiz-adv-x="1323" d="M96 653q0 332 19 576q8 73 16 119t23.5 92t39 71t60.5 40.5t88 15.5q113 0 159 -44.5t46 -136.5v-67q80 14 168 14q119 0 219.5 -32.5t176 -95t118.5 -161t43 -223.5q0 -96 -20 -175.5t-52 -133.5t-77 -95.5t-90 -65t-95.5 -38t-89.5 -19.5t-76 -5q-126 0 -225 26v-133 q0 -40 -6.5 -68.5t-24.5 -56.5t-58 -42.5t-100 -14.5q-128 0 -179.5 39.5t-61.5 163.5q-21 237 -21 450zM547 567q53 -18 133 -18q197 0 197 272q0 110 -52 169t-170 59q-52 0 -108 -11v-368v-103z" />
<glyph unicode="&#xdf;" horiz-adv-x="1404" d="M125 565q0 414 29 565q21 116 58 194.5t101.5 134.5t162.5 82t239 26q88 0 174.5 -23t162 -67t122.5 -119t47 -170q0 -47 -15.5 -93t-32.5 -75.5t-51.5 -66t-48 -48.5t-45.5 -39q-35 -28 -35 -55q0 -22 22.5 -43.5t75.5 -55t70 -46.5q193 -143 193 -347q0 -342 -387 -342 q-156 0 -271 68q-37 23 -53 47t-16 62q0 63 30 115.5t91 52.5q22 0 75 -36t88 -36q34 0 52 19t18 46q0 24 -11.5 44t-23.5 30t-39 29q-143 102 -195.5 188.5t-52.5 190.5q0 47 19.5 90t46.5 76.5t54.5 66.5t47 73.5t19.5 84.5q0 58 -42.5 89.5t-98.5 31.5 q-69 0 -112.5 -62.5t-43.5 -204.5v-892q0 -87 -55 -125.5t-164 -38.5q-58 0 -95.5 11t-58.5 37t-29.5 58.5t-11.5 85.5q-10 154 -10 387z" />
<glyph unicode="&#xe0;" horiz-adv-x="1208" d="M72 305q0 76 31.5 135.5t84.5 94.5t115 53t129 18q122 0 219 -43q0 58 -1 89.5t-6 67t-14.5 52.5t-26.5 32.5t-42.5 21t-62.5 5.5q-51 -36 -116 -68t-114 -32q-68 0 -111.5 46t-43.5 122q0 51 16.5 78.5t73.5 50.5q51 21 157 38t218 17q118 0 204 -25.5t141 -71t88 -120 t45.5 -162t12.5 -206.5q0 -65 -8 -209q19 8 47 8q59 0 85 -30t26 -113q0 -44 -16.5 -75.5t-40.5 -48t-62.5 -26t-70.5 -12t-77 -2.5q-144 0 -184 125q-65 -62 -154.5 -97.5t-183.5 -35.5q-73 0 -134 16t-113 51t-81.5 100.5t-29.5 155.5zM334 1491q0 54 51 113t123 59 q33 0 76.5 -33.5t85.5 -86.5t68 -90.5t48 -72.5q23 -38 23 -71q0 -43 -46.5 -83t-90.5 -40q-6 0 -12 1t-10.5 1.5t-11 3t-10 3.5t-11 5t-10.5 5.5t-11 6.5t-10 6.5t-11.5 7.5t-11.5 7q-85 55 -166 141q-36 39 -49.5 63.5t-13.5 53.5zM438 322q0 -109 119 -109q13 0 25.5 2.5 t20 5t17 8.5t13 8.5t11.5 9.5l7 7v137q-45 27 -106 27q-41 0 -74 -24.5t-33 -71.5z" />
<glyph unicode="&#xe1;" horiz-adv-x="1208" d="M72 305q0 76 31.5 135.5t84.5 94.5t115 53t129 18q122 0 219 -43q0 58 -1 89.5t-6 67t-14.5 52.5t-26.5 32.5t-42.5 21t-62.5 5.5q-51 -36 -116 -68t-114 -32q-68 0 -111.5 46t-43.5 122q0 51 16.5 78.5t73.5 50.5q51 21 157 38t218 17q118 0 204 -25.5t141 -71t88 -120 t45.5 -162t12.5 -206.5q0 -65 -8 -209q19 8 47 8q59 0 85 -30t26 -113q0 -44 -16.5 -75.5t-40.5 -48t-62.5 -26t-70.5 -12t-77 -2.5q-144 0 -184 125q-65 -62 -154.5 -97.5t-183.5 -35.5q-73 0 -134 16t-113 51t-81.5 100.5t-29.5 155.5zM352 1309q0 33 23 71q22 35 48 72.5 t68 90.5t85.5 86.5t76.5 33.5q72 0 123 -59t51 -113q0 -29 -13.5 -53.5t-49.5 -63.5q-81 -86 -166 -141q-60 -38 -85 -44q-12 -3 -24 -3q-44 0 -90.5 40t-46.5 83zM438 322q0 -109 119 -109q13 0 25.5 2.5t20 5t17 8.5t13 8.5t11.5 9.5l7 7v137q-45 27 -106 27 q-41 0 -74 -24.5t-33 -71.5z" />
<glyph unicode="&#xe2;" horiz-adv-x="1208" d="M72 305q0 76 31.5 135.5t84.5 94.5t115 53t129 18q122 0 219 -43q0 58 -1 89.5t-6 67t-14.5 52.5t-26.5 32.5t-42.5 21t-62.5 5.5q-51 -36 -116 -68t-114 -32q-68 0 -111.5 46t-43.5 122q0 51 16.5 78.5t73.5 50.5q51 21 157 38t218 17q118 0 204 -25.5t141 -71t88 -120 t45.5 -162t12.5 -206.5q0 -65 -8 -209q19 8 47 8q59 0 85 -30t26 -113q0 -44 -16.5 -75.5t-40.5 -48t-62.5 -26t-70.5 -12t-77 -2.5q-144 0 -184 125q-65 -62 -154.5 -97.5t-183.5 -35.5q-73 0 -134 16t-113 51t-81.5 100.5t-29.5 155.5zM172 1360q0 49 84.5 136t216.5 163 q53 29 117 29t117 -29q132 -76 216.5 -163t84.5 -136q0 -64 -57.5 -108t-106.5 -44q-28 0 -45 6.5t-45 30.5q-42 34 -164 178q-122 -144 -164 -178q-28 -24 -45 -30.5t-45 -6.5q-49 0 -106.5 44t-57.5 108zM438 322q0 -109 119 -109q13 0 25.5 2.5t20 5t17 8.5t13 8.5 t11.5 9.5l7 7v137q-45 27 -106 27q-41 0 -74 -24.5t-33 -71.5z" />
<glyph unicode="&#xe3;" horiz-adv-x="1208" d="M72 305q0 76 31.5 135.5t84.5 94.5t115 53t129 18q122 0 219 -43q0 58 -1 89.5t-6 67t-14.5 52.5t-26.5 32.5t-42.5 21t-62.5 5.5q-51 -36 -116 -68t-114 -32q-68 0 -111.5 46t-43.5 122q0 51 16.5 78.5t73.5 50.5q51 21 157 38t218 17q118 0 204 -25.5t141 -71t88 -120 t45.5 -162t12.5 -206.5q0 -65 -8 -209q19 8 47 8q59 0 85 -30t26 -113q0 -44 -16.5 -75.5t-40.5 -48t-62.5 -26t-70.5 -12t-77 -2.5q-144 0 -184 125q-65 -62 -154.5 -97.5t-183.5 -35.5q-73 0 -134 16t-113 51t-81.5 100.5t-29.5 155.5zM162 1376q0 38 24 76 q104 154 265 154q64 0 122.5 -20.5t108.5 -49t66 -33.5q43 48 72 69t61 21q55 0 97 -44t42 -105q0 -32 -19 -62q-92 -149 -270 -149q-64 0 -123.5 19t-111.5 46.5t-68 32.5q-67 -90 -135 -90q-52 0 -91.5 39.5t-39.5 95.5zM438 322q0 -109 119 -109q13 0 25.5 2.5t20 5 t17 8.5t13 8.5t11.5 9.5l7 7v137q-45 27 -106 27q-41 0 -74 -24.5t-33 -71.5z" />
<glyph unicode="&#xe4;" horiz-adv-x="1208" d="M72 305q0 76 31.5 135.5t84.5 94.5t115 53t129 18q122 0 219 -43q0 58 -1 89.5t-6 67t-14.5 52.5t-26.5 32.5t-42.5 21t-62.5 5.5q-51 -36 -116 -68t-114 -32q-68 0 -111.5 46t-43.5 122q0 51 16.5 78.5t73.5 50.5q51 21 157 38t218 17q118 0 204 -25.5t141 -71t88 -120 t45.5 -162t12.5 -206.5q0 -65 -8 -209q19 8 47 8q59 0 85 -30t26 -113q0 -44 -16.5 -75.5t-40.5 -48t-62.5 -26t-70.5 -12t-77 -2.5q-144 0 -184 125q-65 -62 -154.5 -97.5t-183.5 -35.5q-73 0 -134 16t-113 51t-81.5 100.5t-29.5 155.5zM154 1432q0 78 53.5 129t128.5 51 q78 0 130 -46.5t52 -133.5q0 -78 -53.5 -129.5t-128.5 -51.5q-78 0 -130 47.5t-52 133.5zM438 322q0 -109 119 -109q13 0 25.5 2.5t20 5t17 8.5t13 8.5t11.5 9.5l7 7v137q-45 27 -106 27q-41 0 -74 -24.5t-33 -71.5zM664 1432q0 78 53.5 129t128.5 51q78 0 130 -46.5 t52 -133.5q0 -78 -53.5 -129.5t-128.5 -51.5q-78 0 -130 47.5t-52 133.5z" />
<glyph unicode="&#xe5;" horiz-adv-x="1208" d="M72 305q0 76 31.5 135.5t84.5 94.5t115 53t129 18q122 0 219 -43q0 58 -1 89.5t-6 67t-14.5 52.5t-26.5 32.5t-42.5 21t-62.5 5.5q-51 -36 -116 -68t-114 -32q-68 0 -111.5 46t-43.5 122q0 51 16.5 78.5t73.5 50.5q51 21 157 38t218 17q118 0 204 -25.5t141 -71t88 -120 t45.5 -162t12.5 -206.5q0 -65 -8 -209q19 8 47 8q59 0 85 -30t26 -113q0 -44 -16.5 -75.5t-40.5 -48t-62.5 -26t-70.5 -12t-77 -2.5q-144 0 -184 125q-65 -62 -154.5 -97.5t-183.5 -35.5q-73 0 -134 16t-113 51t-81.5 100.5t-29.5 155.5zM334 1423q0 113 76 173.5t180 60.5 q51 0 94.5 -12t81 -38t59 -73t21.5 -111q0 -114 -75.5 -173.5t-180.5 -59.5q-51 0 -94.5 12t-81 37.5t-59 72.5t-21.5 111zM438 322q0 -109 119 -109q13 0 25.5 2.5t20 5t17 8.5t13 8.5t11.5 9.5l7 7v137q-45 27 -106 27q-41 0 -74 -24.5t-33 -71.5zM512 1423 q0 -39 21 -61.5t57 -22.5q35 0 56.5 23.5t21.5 60.5q0 39 -21 61.5t-57 22.5q-35 0 -56.5 -23.5t-21.5 -60.5z" />
<glyph unicode="&#xe6;" horiz-adv-x="1703" d="M72 305q0 76 31.5 135.5t84.5 94.5t115 53t129 18q95 0 197 -33q2 4 2 11q0 61 -2 96t-9 68t-22 48.5t-39 25t-61 9.5q-51 -36 -116 -68t-114 -32q-68 0 -111.5 46t-43.5 122q0 51 16.5 78.5t73.5 50.5q134 55 334 55q213 0 319 -112q134 112 328 112q28 0 59.5 -3 t77 -12.5t86.5 -25.5t83.5 -44.5t73.5 -66t50.5 -94t19.5 -124.5q0 -74 -27.5 -131.5t-70 -91.5t-99 -56t-108 -29.5t-104.5 -7.5q-97 0 -178 29q10 -93 47.5 -134.5t103.5 -41.5q54 0 116.5 24.5t120.5 49t101 24.5q30 0 52 -22t32 -54.5t14 -59t4 -46.5q0 -36 -8 -56.5 t-31 -37.5q-52 -36 -177 -65.5t-244 -29.5q-269 0 -408 136q-64 -61 -155 -96t-185 -35q-73 0 -134 16t-113 51t-81.5 100.5t-29.5 155.5zM438 322q0 -109 119 -109q62 0 113 51q-27 69 -35 137q-43 17 -90 17q-41 0 -74 -24.5t-33 -71.5zM1042 606q44 -14 86 -14 q144 0 144 133q0 51 -22.5 78.5t-61.5 27.5q-128 0 -146 -225z" />
<glyph unicode="&#xe7;" horiz-adv-x="1136" d="M72 535q0 142 42.5 248.5t119.5 171t178.5 96.5t226.5 32q224 0 344 -57q56 -26 70 -52t14 -85q0 -70 -46 -136.5t-110 -66.5q-89 0 -221 141q-48 0 -80.5 -11.5t-60 -42t-40.5 -89.5t-13 -149q0 -142 44.5 -213.5t112.5 -71.5q54 0 114.5 25.5t116.5 51t99 25.5 q30 0 52 -22t32 -54.5t14 -59t4 -46.5q0 -37 -8 -57t-30 -37q-54 -37 -175.5 -68t-238.5 -31q-263 0 -412 139t-149 419zM356 -379q0 38 20 59t42 21q15 0 44.5 -13.5t51.5 -13.5q53 0 53 31q0 20 -25 32t-85 25q-32 7 -48 18t-16 36q0 84 103 84q42 0 78.5 -4t78.5 -16.5 t71.5 -33.5t49 -57.5t19.5 -85.5q0 -83 -75 -132.5t-169 -49.5q-88 0 -143 22q-50 20 -50 78z" />
<glyph unicode="&#xe8;" horiz-adv-x="1148" d="M72 524q0 142 41 250t116 175t175.5 100.5t224.5 33.5q28 0 59.5 -3t77 -12.5t86.5 -25.5t83.5 -44.5t73.5 -66t50.5 -94t19.5 -124.5q0 -74 -27.5 -131.5t-70 -91.5t-99 -56t-108 -29.5t-104.5 -7.5q-97 0 -178 29q10 -93 47.5 -134.5t103.5 -41.5q54 0 116.5 24.5 t120.5 49t101 24.5q30 0 52 -22t32 -54.5t14 -59t4 -46.5q0 -36 -8 -56.5t-31 -37.5q-52 -36 -177 -65.5t-244 -29.5q-263 0 -407 133.5t-144 413.5zM340 1503q0 54 51 113t123 59q33 0 77 -33.5t85.5 -86t68.5 -90.5t48 -72q22 -36 22 -72q0 -43 -46.5 -83t-90.5 -40 q-6 0 -12 1t-10.5 1.5t-11 3t-10 3.5t-11 5t-10.5 5.5t-11 6.5t-10 6.5t-11.5 7.5t-11.5 7q-85 55 -166 141q-36 39 -49.5 63.5t-13.5 53.5zM487 606q44 -14 86 -14q144 0 144 133q0 51 -22.5 78.5t-61.5 27.5q-128 0 -146 -225z" />
<glyph unicode="&#xe9;" horiz-adv-x="1148" d="M72 524q0 142 41 250t116 175t175.5 100.5t224.5 33.5q28 0 59.5 -3t77 -12.5t86.5 -25.5t83.5 -44.5t73.5 -66t50.5 -94t19.5 -124.5q0 -74 -27.5 -131.5t-70 -91.5t-99 -56t-108 -29.5t-104.5 -7.5q-97 0 -178 29q10 -93 47.5 -134.5t103.5 -41.5q54 0 116.5 24.5 t120.5 49t101 24.5q30 0 52 -22t32 -54.5t14 -59t4 -46.5q0 -36 -8 -56.5t-31 -37.5q-52 -36 -177 -65.5t-244 -29.5q-263 0 -407 133.5t-144 413.5zM358 1321q0 34 23 72q22 35 48 72.5t68 90t85.5 86t76.5 33.5q72 0 123.5 -59t51.5 -113q0 -28 -14 -52.5t-50 -64.5 q-81 -86 -166 -141q-3 -2 -12.5 -8t-12.5 -8t-11.5 -7t-12 -7t-11 -5.5t-12 -5t-11 -3.5t-13 -2.5t-12.5 -0.5q-44 0 -91 40t-47 83zM487 606q44 -14 86 -14q144 0 144 133q0 51 -22.5 78.5t-61.5 27.5q-128 0 -146 -225z" />
<glyph unicode="&#xea;" horiz-adv-x="1148" d="M72 524q0 142 41 250t116 175t175.5 100.5t224.5 33.5q28 0 59.5 -3t77 -12.5t86.5 -25.5t83.5 -44.5t73.5 -66t50.5 -94t19.5 -124.5q0 -74 -27.5 -131.5t-70 -91.5t-99 -56t-108 -29.5t-104.5 -7.5q-97 0 -178 29q10 -93 47.5 -134.5t103.5 -41.5q54 0 116.5 24.5 t120.5 49t101 24.5q30 0 52 -22t32 -54.5t14 -59t4 -46.5q0 -36 -8 -56.5t-31 -37.5q-52 -36 -177 -65.5t-244 -29.5q-263 0 -407 133.5t-144 413.5zM178 1372q0 49 84.5 136t216.5 163q53 29 117 29t117 -29q132 -76 216.5 -163t84.5 -136q0 -64 -57.5 -107.5t-106.5 -43.5 q-28 0 -45 6.5t-45 29.5q-39 32 -164 179q-125 -147 -164 -179q-28 -23 -45 -29.5t-45 -6.5q-49 0 -106.5 43.5t-57.5 107.5zM487 606q44 -14 86 -14q144 0 144 133q0 51 -22.5 78.5t-61.5 27.5q-128 0 -146 -225z" />
<glyph unicode="&#xeb;" horiz-adv-x="1148" d="M72 524q0 142 41 250t116 175t175.5 100.5t224.5 33.5q28 0 59.5 -3t77 -12.5t86.5 -25.5t83.5 -44.5t73.5 -66t50.5 -94t19.5 -124.5q0 -74 -27.5 -131.5t-70 -91.5t-99 -56t-108 -29.5t-104.5 -7.5q-97 0 -178 29q10 -93 47.5 -134.5t103.5 -41.5q54 0 116.5 24.5 t120.5 49t101 24.5q30 0 52 -22t32 -54.5t14 -59t4 -46.5q0 -36 -8 -56.5t-31 -37.5q-52 -36 -177 -65.5t-244 -29.5q-263 0 -407 133.5t-144 413.5zM160 1444q0 78 53.5 129t128.5 51q78 0 130 -46.5t52 -133.5q0 -78 -53.5 -129t-128.5 -51q-78 0 -130 47.5t-52 132.5z M487 606q44 -14 86 -14q144 0 144 133q0 51 -22.5 78.5t-61.5 27.5q-128 0 -146 -225zM670 1444q0 78 53.5 129t128.5 51q78 0 130 -46.5t52 -133.5q0 -78 -53.5 -129t-128.5 -51q-78 0 -130 47.5t-52 132.5z" />
<glyph unicode="&#xec;" horiz-adv-x="763" d="M41 936q0 52 26 90.5t80 46.5q64 10 138 10q142 0 214 -61t81 -203q8 -107 8 -252q0 -109 -17 -262q6 2 21 2q59 0 84.5 -30t25.5 -113q0 -44 -17.5 -75.5t-42.5 -48t-64.5 -26t-72 -12t-77.5 -2.5q-72 0 -122.5 15.5t-78.5 38.5t-43.5 62.5t-19.5 75.5t-4 89l20 479 q-8 -2 -28 -2q-111 0 -111 178zM86 1503q0 54 51 113t123 59q33 0 77 -33.5t85.5 -86t68.5 -90.5t48 -72q22 -36 22 -72q0 -43 -46.5 -83t-90.5 -40q-6 0 -12 1t-10.5 1.5t-11 3t-10 3.5t-11 5t-10.5 5.5t-11 6.5t-10 6.5t-11.5 7.5t-11.5 7q-83 53 -165 141 q-36 40 -50 64.5t-14 52.5z" />
<glyph unicode="&#xed;" horiz-adv-x="763" d="M41 936q0 52 26 90.5t80 46.5q64 10 138 10q142 0 214 -61t81 -203q8 -107 8 -252q0 -109 -17 -262q6 2 21 2q59 0 84.5 -30t25.5 -113q0 -44 -17.5 -75.5t-42.5 -48t-64.5 -26t-72 -12t-77.5 -2.5q-72 0 -122.5 15.5t-78.5 38.5t-43.5 62.5t-19.5 75.5t-4 89l20 479 q-8 -2 -28 -2q-111 0 -111 178zM104 1321q0 34 23 72q21 34 48 72t68.5 90.5t85.5 86t77 33.5q72 0 123 -59t51 -113q0 -28 -14 -52.5t-50 -64.5q-81 -86 -166 -141q-3 -2 -12.5 -8t-12.5 -8t-11.5 -7t-12 -7t-11 -5.5t-12 -5t-11 -3.5t-13 -2.5t-12.5 -0.5q-44 0 -91 40 t-47 83z" />
<glyph unicode="&#xee;" horiz-adv-x="763" d="M-76 1372q0 49 84.5 136t216.5 163q53 29 117 29t117 -29q132 -76 216.5 -163t84.5 -136q0 -64 -57.5 -107.5t-106.5 -43.5q-28 0 -45 6.5t-45 29.5q-39 32 -164 179q-125 -147 -164 -179q-28 -23 -45 -29.5t-45 -6.5q-49 0 -106.5 43.5t-57.5 107.5zM41 936 q0 52 26 90.5t80 46.5q64 10 138 10q142 0 214 -61t81 -203q8 -107 8 -252q0 -109 -17 -262q6 2 21 2q59 0 84.5 -30t25.5 -113q0 -44 -17.5 -75.5t-42.5 -48t-64.5 -26t-72 -12t-77.5 -2.5q-72 0 -122.5 15.5t-78.5 38.5t-43.5 62.5t-19.5 75.5t-4 89l20 479q-8 -2 -28 -2 q-111 0 -111 178z" />
<glyph unicode="&#xef;" horiz-adv-x="763" d="M-96 1444q0 78 54 129t130 51q78 0 130 -46.5t52 -133.5q0 -78 -53.5 -129t-128.5 -51q-79 0 -131.5 47t-52.5 133zM41 936q0 52 26 90.5t80 46.5q64 10 138 10q142 0 214 -61t81 -203q8 -107 8 -252q0 -109 -17 -262q6 2 21 2q59 0 84.5 -30t25.5 -113 q0 -44 -17.5 -75.5t-42.5 -48t-64.5 -26t-72 -12t-77.5 -2.5q-72 0 -122.5 15.5t-78.5 38.5t-43.5 62.5t-19.5 75.5t-4 89l20 479q-8 -2 -28 -2q-111 0 -111 178zM416 1444q0 78 53.5 129t128.5 51q78 0 130 -46.5t52 -133.5q0 -78 -53.5 -129t-128.5 -51q-78 0 -130 47.5 t-52 132.5z" />
<glyph unicode="&#xf1;" horiz-adv-x="1417" d="M37 936q0 52 26 90.5t80 46.5q64 10 142 10q125 0 183 -40t58 -132q0 -15 -4 -47h19q43 98 129.5 158.5t201.5 60.5q186 0 287 -121t101 -395v-262q6 2 18 2q59 0 85 -30t26 -113q0 -44 -16.5 -75.5t-40.5 -48t-62.5 -26t-70.5 -12t-77 -2.5q-71 0 -121.5 15t-78.5 38 t-43.5 62t-20 75t-4.5 89v245q0 135 -21 189.5t-81 54.5q-56 0 -102.5 -54t-65.5 -124v-412q0 -39 -1 -59t-7 -44t-18 -35t-33.5 -22t-54 -14.5t-79.5 -3.5q-111 0 -159.5 33.5t-57.5 122.5q-12 118 -12 266q0 146 18 342q-15 -6 -33 -6q-110 0 -110 178zM250 1389 q0 37 24 75q104 154 265 154q64 0 122.5 -20t109 -48.5t65.5 -33.5q43 48 72 69t61 21q55 0 97 -44.5t42 -105.5q0 -32 -18 -61q-93 -150 -271 -150q-64 0 -123.5 19t-111.5 46.5t-68 32.5q-67 -90 -135 -90q-52 0 -91.5 40t-39.5 96z" />
<glyph unicode="&#xf2;" horiz-adv-x="1253" d="M72 526q0 142 41.5 250t117 174.5t175 99.5t221.5 33t221.5 -33t175 -99.5t117 -174.5t41.5 -250q0 -270 -147.5 -407t-407.5 -137q-261 0 -408 137t-147 407zM371 1491q0 54 51 113t123 59q33 0 76.5 -33.5t85.5 -86.5t68 -90.5t48 -72.5q23 -38 23 -71q0 -43 -46.5 -83 t-90.5 -40q-6 0 -12 1t-10.5 1.5t-11 3t-10 3.5t-11 5t-10.5 5.5t-11 6.5t-10 6.5t-11.5 7.5t-11.5 7q-85 55 -166 141q-36 39 -49.5 63.5t-13.5 53.5zM489 526q0 -153 30.5 -216.5t107.5 -63.5q76 0 106.5 63.5t30.5 216.5q0 154 -32.5 223.5t-104.5 69.5t-105 -69.5 t-33 -223.5z" />
<glyph unicode="&#xf3;" horiz-adv-x="1253" d="M72 526q0 142 41.5 250t117 174.5t175 99.5t221.5 33t221.5 -33t175 -99.5t117 -174.5t41.5 -250q0 -270 -147.5 -407t-407.5 -137q-261 0 -408 137t-147 407zM389 1309q0 33 23 71q22 35 48 72.5t68 90.5t85.5 86.5t76.5 33.5q72 0 123 -59t51 -113q0 -29 -13.5 -53.5 t-49.5 -63.5q-81 -86 -166 -141q-60 -38 -85 -44q-12 -3 -24 -3q-44 0 -90.5 40t-46.5 83zM489 526q0 -153 30.5 -216.5t107.5 -63.5q76 0 106.5 63.5t30.5 216.5q0 154 -32.5 223.5t-104.5 69.5t-105 -69.5t-33 -223.5z" />
<glyph unicode="&#xf4;" horiz-adv-x="1253" d="M72 526q0 142 41.5 250t117 174.5t175 99.5t221.5 33t221.5 -33t175 -99.5t117 -174.5t41.5 -250q0 -270 -147.5 -407t-407.5 -137q-261 0 -408 137t-147 407zM209 1360q0 49 84.5 136t216.5 163q53 29 117 29q63 0 116 -29q132 -76 216.5 -163t84.5 -136 q0 -64 -57.5 -108t-105.5 -44q-28 0 -45 6.5t-45 30.5q-42 34 -164 178q-122 -144 -164 -178q-28 -24 -45 -30.5t-45 -6.5q-49 0 -106.5 44t-57.5 108zM489 526q0 -153 30.5 -216.5t107.5 -63.5q76 0 106.5 63.5t30.5 216.5q0 154 -32.5 223.5t-104.5 69.5t-105 -69.5 t-33 -223.5z" />
<glyph unicode="&#xf5;" horiz-adv-x="1253" d="M72 526q0 142 41.5 250t117 174.5t175 99.5t221.5 33t221.5 -33t175 -99.5t117 -174.5t41.5 -250q0 -270 -147.5 -407t-407.5 -137q-261 0 -408 137t-147 407zM199 1376q0 38 24 76q104 154 264 154q64 0 122.5 -20.5t108.5 -49t66 -33.5q43 48 72.5 69t61.5 21 q55 0 97 -44t42 -105q0 -32 -19 -62q-92 -149 -270 -149q-64 0 -123.5 19t-111.5 46.5t-68 32.5q-67 -90 -135 -90q-52 0 -91.5 39.5t-39.5 95.5zM489 526q0 -153 30.5 -216.5t107.5 -63.5q76 0 106.5 63.5t30.5 216.5q0 154 -32.5 223.5t-104.5 69.5t-105 -69.5t-33 -223.5 z" />
<glyph unicode="&#xf6;" horiz-adv-x="1253" d="M72 526q0 142 41.5 250t117 174.5t175 99.5t221.5 33t221.5 -33t175 -99.5t117 -174.5t41.5 -250q0 -270 -147.5 -407t-407.5 -137q-261 0 -408 137t-147 407zM190 1432q0 78 54 129t129 51q78 0 130 -46.5t52 -133.5q0 -78 -53.5 -129.5t-128.5 -51.5q-78 0 -130.5 48 t-52.5 133zM489 526q0 -153 30.5 -216.5t107.5 -63.5q76 0 106.5 63.5t30.5 216.5q0 154 -32.5 223.5t-104.5 69.5t-105 -69.5t-33 -223.5zM700 1432q0 78 54 129t129 51q78 0 130 -46.5t52 -133.5q0 -78 -53.5 -129.5t-128.5 -51.5q-78 0 -130.5 48t-52.5 133z" />
<glyph unicode="&#xf8;" horiz-adv-x="1253" d="M72 526q0 142 41.5 250t117 174.5t175 99.5t221.5 33q93 0 172 -18q85 127 159 127q67 0 131 -50.5t64 -111.5q0 -46 -70 -145q99 -143 99 -359q0 -270 -148 -409.5t-407 -139.5q-74 0 -150 13q-86 -135 -164 -135q-67 0 -130.5 50t-63.5 111q0 47 65 140 q-112 137 -112 370zM489 526q0 -153 30.5 -218.5t107.5 -65.5q76 0 106.5 65t30.5 219t-32.5 223.5t-104.5 69.5t-105 -69.5t-33 -223.5z" />
<glyph unicode="&#xf9;" horiz-adv-x="1384" d="M20 920q0 45 11 75t29 48t55 26.5t73.5 11t100.5 2.5q86 0 139.5 -13t81.5 -43.5t37.5 -69t9.5 -101.5v-321q0 -138 18.5 -190t77.5 -52q67 0 110.5 77t43.5 154v381q0 39 1 58.5t7 44t17.5 35.5t33 22t54 14.5t79.5 3.5q110 0 155 -32.5t54 -122.5q13 -127 13 -266 q0 -145 -23 -369q24 4 39 4q59 0 85 -30t26 -113q0 -54 -24.5 -89t-70 -50.5t-86.5 -20t-98 -4.5q-34 0 -61.5 6.5t-46 14.5t-33 24.5t-22 28.5t-14.5 34.5t-9 33.5t-6 35l-3 15h-20q-48 -95 -130.5 -150t-184.5 -55q-131 0 -214 48.5t-128 163t-45 303.5v286q-6 -2 -21 -2 q-59 0 -85 30.5t-26 113.5zM416 1503q0 54 51 113t123 59q33 0 76.5 -33.5t85.5 -86t68 -90t48 -72.5q23 -38 23 -72q0 -43 -46.5 -83t-90.5 -40q-6 0 -12 1t-10.5 1.5t-11 3t-10 3.5t-11 5t-10.5 5.5t-11 6.5t-10 6.5t-11.5 7.5t-11.5 7q-85 55 -166 141q-36 39 -49.5 63.5 t-13.5 53.5z" />
<glyph unicode="&#xfa;" horiz-adv-x="1384" d="M20 920q0 45 11 75t29 48t55 26.5t73.5 11t100.5 2.5q86 0 139.5 -13t81.5 -43.5t37.5 -69t9.5 -101.5v-321q0 -138 18.5 -190t77.5 -52q67 0 110.5 77t43.5 154v381q0 39 1 58.5t7 44t17.5 35.5t33 22t54 14.5t79.5 3.5q110 0 155 -32.5t54 -122.5q13 -127 13 -266 q0 -145 -23 -369q24 4 39 4q59 0 85 -30t26 -113q0 -54 -24.5 -89t-70 -50.5t-86.5 -20t-98 -4.5q-34 0 -61.5 6.5t-46 14.5t-33 24.5t-22 28.5t-14.5 34.5t-9 33.5t-6 35l-3 15h-20q-48 -95 -130.5 -150t-184.5 -55q-131 0 -214 48.5t-128 163t-45 303.5v286q-6 -2 -21 -2 q-59 0 -85 30.5t-26 113.5zM434 1321q0 34 23 72q22 35 48 72.5t68 90t85.5 86t76.5 33.5q72 0 123 -59t51 -113q0 -29 -13.5 -53.5t-49.5 -63.5q-81 -86 -166 -141q-60 -38 -85 -44q-12 -3 -24 -3q-44 0 -90.5 40t-46.5 83z" />
<glyph unicode="&#xfb;" horiz-adv-x="1384" d="M20 920q0 45 11 75t29 48t55 26.5t73.5 11t100.5 2.5q86 0 139.5 -13t81.5 -43.5t37.5 -69t9.5 -101.5v-321q0 -138 18.5 -190t77.5 -52q67 0 110.5 77t43.5 154v381q0 39 1 58.5t7 44t17.5 35.5t33 22t54 14.5t79.5 3.5q110 0 155 -32.5t54 -122.5q13 -127 13 -266 q0 -145 -23 -369q24 4 39 4q59 0 85 -30t26 -113q0 -54 -24.5 -89t-70 -50.5t-86.5 -20t-98 -4.5q-34 0 -61.5 6.5t-46 14.5t-33 24.5t-22 28.5t-14.5 34.5t-9 33.5t-6 35l-3 15h-20q-48 -95 -130.5 -150t-184.5 -55q-131 0 -214 48.5t-128 163t-45 303.5v286q-6 -2 -21 -2 q-59 0 -85 30.5t-26 113.5zM254 1372q0 49 84.5 136t216.5 163q53 29 117 29q63 0 116 -29q132 -76 217 -163.5t85 -135.5q0 -64 -57.5 -107.5t-106.5 -43.5q-28 0 -45 6.5t-45 29.5q-39 32 -164 179q-125 -147 -164 -179q-28 -23 -45 -29.5t-45 -6.5q-49 0 -106.5 43.5 t-57.5 107.5z" />
<glyph unicode="&#xfc;" horiz-adv-x="1384" d="M20 920q0 45 11 75t29 48t55 26.5t73.5 11t100.5 2.5q86 0 139.5 -13t81.5 -43.5t37.5 -69t9.5 -101.5v-321q0 -138 18.5 -190t77.5 -52q67 0 110.5 77t43.5 154v381q0 39 1 58.5t7 44t17.5 35.5t33 22t54 14.5t79.5 3.5q110 0 155 -32.5t54 -122.5q13 -127 13 -266 q0 -145 -23 -369q24 4 39 4q59 0 85 -30t26 -113q0 -54 -24.5 -89t-70 -50.5t-86.5 -20t-98 -4.5q-34 0 -61.5 6.5t-46 14.5t-33 24.5t-22 28.5t-14.5 34.5t-9 33.5t-6 35l-3 15h-20q-48 -95 -130.5 -150t-184.5 -55q-131 0 -214 48.5t-128 163t-45 303.5v286q-6 -2 -21 -2 q-59 0 -85 30.5t-26 113.5zM236 1444q0 78 53.5 129t128.5 51q78 0 130 -46.5t52 -133.5q0 -78 -53.5 -129t-128.5 -51q-78 0 -130 47.5t-52 132.5zM745 1444q0 78 54 129t129 51q78 0 130 -46.5t52 -133.5q0 -78 -53.5 -129t-128.5 -51q-78 0 -130.5 47.5t-52.5 132.5z" />
<glyph unicode="&#xfd;" horiz-adv-x="1226" d="M0 920q0 45 12.5 75.5t32.5 47.5t58.5 26t75.5 11.5t100 2.5q85 0 139.5 -14t84.5 -46t42 -70.5t18 -102.5q1 -11 10 -103.5t17 -150t30.5 -155t53.5 -179.5q9 -20 31 -20q14 0 32 6q49 221 49 409q-3 15 -12 59.5t-13 65.5t-9.5 56t-8 63.5t-2.5 54.5q0 56 59.5 91.5 t149.5 35.5q121 0 163 -71.5t42 -227.5q0 -126 -12 -247.5t-40 -246.5t-70 -234t-107 -205.5t-146 -165.5t-191 -108.5t-239 -39.5q-137 0 -224 46t-87 112q0 97 38.5 167t104.5 70q56 0 124 -46t106 -97q140 0 233 188q-100 1 -159.5 17.5t-98.5 50.5t-86 105 q-70 106 -110 279t-50 351q-24 -4 -37 -4q-104 0 -104 144zM381 1321q0 36 22 72q21 34 48 72t68.5 90.5t85.5 86t77 33.5q72 0 123 -59t51 -113q0 -29 -13.5 -53.5t-49.5 -63.5q-81 -86 -166 -141q-60 -38 -85 -44q-12 -3 -24 -3q-44 0 -90.5 40t-46.5 83z" />
<glyph unicode="&#xfe;" horiz-adv-x="1327" d="M154 303q0 904 39 1129q14 79 64.5 107t131.5 28q189 0 189 -178v-418q94 112 251 112q426 0 426 -555q0 -135 -41.5 -241t-115 -172t-169.5 -100.5t-208 -34.5q-75 0 -143 28v-321q0 -168 -205 -168q-59 0 -100 13t-62.5 37.5t-30.5 51t-12 60.5q-14 192 -14 622z M578 266q60 -33 124 -33q74 0 116 73.5t42 221.5q0 242 -141 242q-81 0 -141 -147v-357z" />
<glyph unicode="&#xff;" horiz-adv-x="1226" d="M0 920q0 45 12.5 75.5t32.5 47.5t58.5 26t75.5 11.5t100 2.5q85 0 139.5 -14t84.5 -46t42 -70.5t18 -102.5q1 -11 10 -103.5t17 -150t30.5 -155t53.5 -179.5q9 -20 31 -20q14 0 32 6q49 221 49 409q-3 15 -12 59.5t-13 65.5t-9.5 56t-8 63.5t-2.5 54.5q0 56 59.5 91.5 t149.5 35.5q121 0 163 -71.5t42 -227.5q0 -126 -12 -247.5t-40 -246.5t-70 -234t-107 -205.5t-146 -165.5t-191 -108.5t-239 -39.5q-137 0 -224 46t-87 112q0 97 38.5 167t104.5 70q56 0 124 -46t106 -97q140 0 233 188q-100 1 -159.5 17.5t-98.5 50.5t-86 105 q-70 106 -110 279t-50 351q-24 -4 -37 -4q-104 0 -104 144zM182 1444q0 78 54 129t129 51q78 0 130 -46.5t52 -133.5q0 -78 -53.5 -129t-128.5 -51q-78 0 -130.5 47.5t-52.5 132.5zM692 1444q0 78 53.5 129t128.5 51q78 0 130.5 -46.5t52.5 -133.5q0 -78 -54 -129t-129 -51 q-78 0 -130 47.5t-52 132.5z" />
<glyph unicode="&#x152;" horiz-adv-x="1998" d="M66 711q0 150 41 273.5t108.5 206t157 139t183.5 81.5t192 25q182 0 313 -88q26 26 69 41t75.5 19t107.5 11q91 8 231 8q104 0 268 -8q79 -6 106.5 -40t27.5 -109q0 -29 -4 -53.5t-13.5 -43t-19 -33t-27.5 -25t-31.5 -18t-38.5 -12t-41 -7t-47 -4t-48 -1.5h-52 q-36 0 -213 6v-223q148 12 180 12q59 0 94.5 -4.5t66 -19t43.5 -44.5t13 -79q0 -43 -11 -73t-28 -47t-48 -26t-61 -11.5t-77 -2.5q-40 0 -172 12v-256q93 6 245 21.5t197 15.5q46 0 75.5 -28.5t39.5 -64.5t10 -79q0 -132 -84 -159q-97 -31 -436 -31q-225 0 -348 20 q-41 6 -70 35q-122 -70 -292 -70q-101 0 -192.5 20t-183 72t-157.5 132.5t-107.5 211.5t-41.5 298zM543 711q0 -153 26 -244.5t69.5 -126.5t111.5 -35q94 0 147.5 71.5t63.5 246.5q0 97 -3 202q-13 164 -65.5 229.5t-144.5 65.5q-51 0 -87 -18.5t-63.5 -63.5t-41 -126 t-13.5 -201z" />
<glyph unicode="&#x153;" horiz-adv-x="1802" d="M72 526q0 142 41.5 250t117 174.5t175 99.5t221.5 33q191 0 325 -79q134 79 330 79q28 0 59.5 -3t77 -12.5t87 -25.5t84 -44.5t73.5 -66t50.5 -94t19.5 -124.5q0 -74 -27.5 -131.5t-70 -91.5t-99.5 -56t-108.5 -29.5t-104.5 -7.5q-97 0 -178 29q10 -93 47.5 -134.5 t103.5 -41.5q54 0 116.5 24.5t120.5 49t101 24.5q30 0 52 -22t32 -54.5t14.5 -59t4.5 -46.5q0 -36 -8 -56.5t-31 -37.5q-52 -36 -177.5 -65.5t-244.5 -29.5q-199 0 -330 76q-128 -76 -319 -76q-260 0 -407.5 139t-147.5 410zM489 526q0 -153 30.5 -218.5t107.5 -65.5 q90 0 118 96q-20 79 -20 186q0 119 31 217q-43 78 -129 78q-72 0 -105 -69.5t-33 -223.5zM1141 606q44 -14 86 -14q143 0 143 133q0 51 -22.5 78.5t-61.5 27.5q-127 0 -145 -225z" />
<glyph unicode="&#x178;" horiz-adv-x="1202" d="M2 1290q0 137 170 137q156 0 224 -42.5t98 -163.5q28 -112 58.5 -227t47.5 -174l16 -58h23q28 58 53 122.5t44.5 131.5t31 110.5t26.5 106.5t17 72q17 67 64 96t143 29q94 0 139 -38t45 -124q0 -91 -51.5 -245t-148.5 -329.5t-209 -296.5q0 -14 6 -82.5t6 -119.5 q0 -54 -11.5 -91t-28.5 -57t-47 -31t-56 -13.5t-68 -2.5q-108 0 -161.5 44t-53.5 144q0 51 5 133.5t5 98.5q-141 209 -264 472t-123 398zM156 1753q0 85 57.5 140t138.5 55q84 0 140.5 -50.5t56.5 -144.5q0 -84 -58 -139t-139 -55q-84 0 -140 50.5t-56 143.5zM707 1753 q0 85 57.5 140t138.5 55q84 0 140.5 -50.5t56.5 -144.5q0 -84 -58 -139t-139 -55q-84 0 -140 50.5t-56 143.5z" />
<glyph unicode="&#x2c6;" horiz-adv-x="917" d="M41 1372q0 49 84.5 136t216.5 163q53 29 117 29q63 0 116 -29q132 -76 217 -163.5t85 -135.5q0 -64 -57.5 -107.5t-106.5 -43.5q-28 0 -45 6.5t-45 29.5q-39 32 -164 179q-125 -147 -164 -179q-28 -23 -45 -29.5t-45 -6.5q-49 0 -106.5 43.5t-57.5 107.5z" />
<glyph unicode="&#x2dc;" horiz-adv-x="899" d="M20 1389q0 35 25 75q104 154 264 154q64 0 122.5 -20t109 -48.5t65.5 -33.5q43 48 72 69t61 21q55 0 97.5 -44.5t42.5 -105.5q0 -31 -19 -61q-93 -150 -270 -150q-64 0 -123.5 19t-111.5 46.5t-68 32.5q-67 -90 -135 -90q-52 0 -92 40t-40 96z" />
<glyph unicode="&#x2000;" horiz-adv-x="1004" />
<glyph unicode="&#x2001;" horiz-adv-x="2009" />
<glyph unicode="&#x2002;" horiz-adv-x="1004" />
<glyph unicode="&#x2003;" horiz-adv-x="2009" />
<glyph unicode="&#x2004;" horiz-adv-x="669" />
<glyph unicode="&#x2005;" horiz-adv-x="502" />
<glyph unicode="&#x2006;" horiz-adv-x="334" />
<glyph unicode="&#x2007;" horiz-adv-x="334" />
<glyph unicode="&#x2008;" horiz-adv-x="251" />
<glyph unicode="&#x2009;" horiz-adv-x="401" />
<glyph unicode="&#x200a;" horiz-adv-x="111" />
<glyph unicode="&#x2010;" horiz-adv-x="1073" d="M92 662q0 168 144 182q88 8 290 8q206 0 310 -8q143 -11 143 -182q0 -172 -143 -183q-104 -8 -310 -8q-202 0 -290 8q-144 14 -144 183z" />
<glyph unicode="&#x2011;" horiz-adv-x="1073" d="M92 662q0 168 144 182q88 8 290 8q206 0 310 -8q143 -11 143 -182q0 -172 -143 -183q-104 -8 -310 -8q-202 0 -290 8q-144 14 -144 183z" />
<glyph unicode="&#x2012;" horiz-adv-x="1073" d="M92 662q0 168 144 182q88 8 290 8q206 0 310 -8q143 -11 143 -182q0 -172 -143 -183q-104 -8 -310 -8q-202 0 -290 8q-144 14 -144 183z" />
<glyph unicode="&#x2013;" horiz-adv-x="1402" d="M92 662q0 168 144 182q110 10 481 10q318 0 448 -10q146 -12 146 -182q0 -171 -146 -183q-130 -10 -448 -10q-371 0 -481 10q-144 14 -144 183z" />
<glyph unicode="&#x2014;" horiz-adv-x="1832" d="M94 662q0 166 142 182q43 5 304 8.5t382 3.5q119 0 381.5 -3.5t312.5 -8.5q145 -14 145 -182q0 -169 -145 -183q-50 -5 -312.5 -8.5t-381.5 -3.5q-121 0 -382 3.5t-304 8.5q-142 16 -142 183z" />
<glyph unicode="&#x2018;" horiz-adv-x="731" d="M61 1139q0 105 35.5 201t94 163t133.5 106.5t153 39.5q77 0 114.5 -56.5t37.5 -126.5q0 -47 -25 -73t-65 -33q-92 -15 -153 -52t-83 -108q19 12 68 12q71 0 121.5 -55t50.5 -156q0 -94 -59 -152t-148 -58q-113 0 -194 88.5t-81 259.5z" />
<glyph unicode="&#x2019;" horiz-adv-x="753" d="M84 973q0 47 25 73t65 33q92 15 153 52t83 108q-19 -12 -68 -12q-71 0 -121.5 55t-50.5 156q0 94 59 152.5t148 58.5q113 0 193.5 -89t80.5 -260q0 -105 -35.5 -201t-93.5 -162.5t-133 -106t-153 -39.5q-77 0 -114.5 56t-37.5 126z" />
<glyph unicode="&#x201a;" horiz-adv-x="649" d="M20 -276q0 47 25.5 73t65.5 33q196 32 235 160q-18 -13 -67 -13q-72 0 -122.5 55t-50.5 156q0 94 59 152.5t148 58.5q113 0 194 -88.5t81 -259.5q0 -105 -35.5 -201t-94 -163t-133.5 -106.5t-153 -39.5q-77 0 -114.5 56.5t-37.5 126.5z" />
<glyph unicode="&#x201c;" horiz-adv-x="1325" d="M61 1159q0 105 35.5 201t94 163t133.5 106.5t153 39.5q77 0 114.5 -56t37.5 -126q0 -47 -25 -74t-65 -33q-198 -33 -236 -159q19 12 68 12q71 0 121.5 -55t50.5 -156q0 -94 -59 -152.5t-148 -58.5q-113 0 -194 88.5t-81 259.5zM655 1159q0 105 35.5 201t94 163 t133.5 106.5t153 39.5q77 0 114.5 -56t37.5 -126q0 -47 -25 -74t-65 -33q-198 -33 -236 -159q19 12 68 12q71 0 121.5 -55t50.5 -156q0 -94 -59 -152.5t-148 -58.5q-113 0 -194 88.5t-81 259.5z" />
<glyph unicode="&#x201d;" horiz-adv-x="1325" d="M102 991q0 47 25.5 73.5t65.5 33.5q197 32 235 159q-19 -12 -68 -12q-71 0 -121.5 55t-50.5 156q0 94 59 152.5t148 58.5q113 0 194 -88.5t81 -259.5q0 -105 -35.5 -201t-94 -163t-133.5 -106.5t-153 -39.5q-77 0 -114.5 56t-37.5 126zM696 991q0 47 25 74t65 33 q198 33 236 159q-19 -12 -68 -12q-71 0 -121.5 55t-50.5 156q0 94 59 152.5t148 58.5q113 0 194 -88.5t81 -259.5q0 -105 -35.5 -201t-94 -163t-133.5 -106.5t-153 -39.5q-77 0 -114.5 56t-37.5 126z" />
<glyph unicode="&#x201e;" horiz-adv-x="1273" d="M51 -279q0 47 25 74t65 33q92 15 153 52t83 108q-19 -13 -68 -13q-71 0 -121.5 55t-50.5 156q0 94 59 152.5t148 58.5q113 0 193.5 -88.5t80.5 -259.5q0 -105 -35.5 -201t-93.5 -163t-133 -106.5t-153 -39.5q-77 0 -114.5 56t-37.5 126zM645 -279q0 47 25 74t65 33 q92 15 153 52t83 108q-19 -13 -68 -13q-71 0 -121.5 55t-50.5 156q0 94 59 152.5t148 58.5q113 0 193.5 -88.5t80.5 -259.5q0 -105 -35.5 -201t-93.5 -163t-133 -106.5t-153 -39.5q-77 0 -114.5 56t-37.5 126z" />
<glyph unicode="&#x2022;" horiz-adv-x="745" d="M129 678q0 105 71 173.5t173 68.5q105 0 174 -63.5t69 -178.5q0 -107 -70.5 -174.5t-172.5 -67.5q-105 0 -174.5 63.5t-69.5 178.5z" />
<glyph unicode="&#x2026;" horiz-adv-x="2064" d="M102 199q0 92 63 152.5t152 60.5q92 0 153.5 -56t61.5 -157q0 -93 -62.5 -153t-152.5 -60q-92 0 -153.5 56t-61.5 157zM709 199q0 92 63 152.5t152 60.5q92 0 153.5 -56t61.5 -157q0 -93 -62.5 -153t-152.5 -60q-92 0 -153.5 56t-61.5 157zM1315 199q0 92 63 152.5 t152 60.5q92 0 153.5 -56t61.5 -157q0 -93 -62.5 -153t-152.5 -60q-92 0 -153.5 56t-61.5 157z" />
<glyph unicode="&#x202f;" horiz-adv-x="401" />
<glyph unicode="&#x2039;" horiz-adv-x="958" d="M166 557q0 54 71 177.5t155.5 227t121.5 111.5q10 2 33 2q85 0 161 -60.5t76 -125.5q0 -49 -87 -153t-167 -181q77 -71 165.5 -176.5t88.5 -155.5q0 -65 -76 -126.5t-161 -61.5q-13 0 -33 4q-37 8 -121.5 111.5t-155.5 227.5t-71 179z" />
<glyph unicode="&#x203a;" horiz-adv-x="958" d="M203 223q0 50 90 158t164 174q-77 71 -165.5 177.5t-88.5 156.5q0 65 75.5 125.5t159.5 60.5q23 0 35 -2q36 -8 120.5 -111.5t156 -227t71.5 -177.5q0 -55 -71 -179t-155.5 -227.5t-121.5 -111.5q-24 -4 -35 -4q-84 0 -159.5 61.5t-75.5 126.5z" />
<glyph unicode="&#x205f;" horiz-adv-x="502" />
<glyph unicode="&#x20ac;" horiz-adv-x="1642" d="M164 545q0 65 27 97t106 32q45 0 78 -2v43v12q-33 -2 -78 -2q-79 0 -106 32t-27 97q0 67 27.5 102t105.5 35q19 0 117 -4q37 114 106.5 201t156.5 138t181.5 76t192.5 25q117 0 191 -20t171 -68q113 -58 113 -163q0 -64 -46.5 -123.5t-99.5 -59.5q-38 0 -80 19 t-73.5 41.5t-75.5 41.5t-86 19q-125 0 -174 -131q123 8 221 8q79 0 108 -34.5t29 -100.5t-28 -98.5t-109 -32.5q-101 0 -260 6v-16v-47q159 6 260 6q80 0 108.5 -31.5t28.5 -95.5q0 -67 -28 -103t-109 -36q-76 0 -211 6q55 -107 172 -107q66 0 124 21t91 45.5t68.5 45.5 t60.5 21q41 0 73.5 -25.5t48.5 -62.5t24 -68.5t8 -52.5q0 -62 -68 -116q-181 -138 -452 -138q-79 0 -153 13t-149.5 44.5t-137.5 80t-113.5 124.5t-81.5 173q-98 -4 -119 -4q-78 0 -105.5 35t-27.5 102z" />
<glyph unicode="&#x2122;" horiz-adv-x="1579" d="M102 1280q0 51 39 61q45 11 133 11q20 0 94.5 -1t90.5 -1q35 0 76 2t53 2q39 0 53 -29t14 -82q0 -46 -37 -61q-30 -13 -122 -13h-11q4 -106 4 -133q0 -60 -6 -143q-3 -41 -29 -60.5t-92 -19.5q-44 0 -67 20t-25 52q-6 99 -6 164q0 32 4 122q-12 0 -43.5 -1t-52.5 -1 q-70 0 -70 111zM678 1026q0 84 14 193q9 63 50 98t110 35q40 0 64.5 -3t55.5 -15t53.5 -39.5t39.5 -71.5q26 -66 29 -131q12 53 39 127q34 85 71.5 109t104.5 24q129 0 147 -111q21 -110 21 -229q0 -29 -4 -111q-3 -86 -95 -86q-64 0 -90 21t-26 84q0 93 -9 219 q-39 -140 -59 -187q-21 -49 -52 -67.5t-81 -18.5q-101 0 -129 84q-35 100 -51 234h-13v-295q0 -74 -82 -74q-55 0 -76.5 18t-25.5 74q-6 62 -6 119z" />
<glyph unicode="&#xe000;" horiz-adv-x="1085" d="M0 0v1085h1085v-1085h-1085z" />
</font>
</defs>
</svg>
